<svg width="79" height="70" viewBox="0 0 79 70" fill="none" xmlns="http://www.w3.org/2000/svg">
<path d="M21.8662 10.9988L27.0375 27.405H43.7456L30.2269 36.7106L35.385 52.5919L21.8662 42.7744L8.3475 52.605L13.5187 36.7106L0 27.3919H16.7081L21.8662 10.9856V10.9988ZM54.5737 0L56.1225 4.92188H61.1362L57.0675 7.70437L58.6294 12.4688L54.5606 9.52875L50.5181 12.4688L52.0669 7.70437L47.9981 4.92188H53.025L54.5737 0V0ZM54.6788 56.9756L56.2275 61.8975H61.2413L57.1856 64.68L58.7344 69.4575L54.6788 66.5044L50.6231 69.4575L52.1719 64.68L48.1163 61.8975H53.13L54.6788 56.9756ZM72.1875 17.6006L73.7363 22.5225H78.75L74.6812 25.305L76.2431 30.0825L72.1744 27.1294L68.1319 30.0825L69.6806 25.305L65.6119 22.5225H70.6387L72.1875 17.6006ZM72.1875 39.48L73.7363 44.4019H78.75L74.6812 47.1844L76.2431 51.9619L72.1744 49.0088L68.1319 51.9619L69.6806 47.1844L65.6119 44.4019H70.6387L72.1875 39.48V39.48Z" fill="#FFEB3B"/>
</svg>
