<svg width="140" height="31" viewBox="0 0 140 31" fill="none" xmlns="http://www.w3.org/2000/svg">
<path d="M0 5C0 2.23858 2.23858 0 5 0H135C137.761 0 140 2.23858 140 5V26C140 28.7614 137.761 31 135 31H5C2.23857 31 0 28.7614 0 26V5Z" fill="#FC490B"/>
<path d="M7.831 5.85034L9.21 10.102H13.6655L10.0605 12.5136L11.436 16.6293L7.831 14.085L4.226 16.6327L5.605 12.5136L2 10.0986H6.4555L7.831 5.84694V5.85034ZM16.553 3L16.966 4.27551H18.303L17.218 4.9966L17.6345 6.23129L16.5495 5.46939L15.4715 6.23129L15.8845 4.9966L14.7995 4.27551H16.14L16.553 3V3ZM16.581 17.7653L16.994 19.0408H18.331L17.2495 19.7619L17.6625 21L16.581 20.2347L15.4995 21L15.9125 19.7619L14.831 19.0408H16.168L16.581 17.7653ZM21.25 7.56122L21.663 8.83673H23L21.915 9.55782L22.3315 10.7959L21.2465 10.0306L20.1685 10.7959L20.5815 9.55782L19.4965 8.83673H20.837L21.25 7.56122ZM21.25 13.2313L21.663 14.5068H23L21.915 15.2279L22.3315 16.466L21.2465 15.7007L20.1685 16.466L20.5815 15.2279L19.4965 14.5068H20.837L21.25 13.2313V13.2313Z" fill="#FFEB3B"/>
<path d="M37.8523 20H34.7585V11.2727H37.8778C38.7557 11.2727 39.5114 11.4474 40.1449 11.7969C40.7784 12.1435 41.2656 12.642 41.6065 13.2926C41.9503 13.9432 42.1222 14.7216 42.1222 15.6278C42.1222 16.5369 41.9503 17.3182 41.6065 17.9716C41.2656 18.625 40.7756 19.1264 40.1364 19.4759C39.5 19.8253 38.7386 20 37.8523 20ZM36.6037 18.419H37.7756C38.321 18.419 38.7798 18.3224 39.152 18.1293C39.527 17.9332 39.8082 17.6307 39.9957 17.2216C40.1861 16.8097 40.2812 16.2784 40.2812 15.6278C40.2812 14.983 40.1861 14.456 39.9957 14.0469C39.8082 13.6378 39.5284 13.3366 39.1562 13.1435C38.7841 12.9503 38.3253 12.8537 37.7798 12.8537H36.6037V18.419ZM46.4123 20.1278C45.7504 20.1278 45.1779 19.9872 44.695 19.706C44.2148 19.4219 43.8441 19.027 43.5827 18.5213C43.3214 18.0128 43.1907 17.4233 43.1907 16.7528C43.1907 16.0767 43.3214 15.4858 43.5827 14.9801C43.8441 14.4716 44.2148 14.0767 44.695 13.7955C45.1779 13.5114 45.7504 13.3693 46.4123 13.3693C47.0742 13.3693 47.6452 13.5114 48.1254 13.7955C48.6083 14.0767 48.9805 14.4716 49.2418 14.9801C49.5032 15.4858 49.6339 16.0767 49.6339 16.7528C49.6339 17.4233 49.5032 18.0128 49.2418 18.5213C48.9805 19.027 48.6083 19.4219 48.1254 19.706C47.6452 19.9872 47.0742 20.1278 46.4123 20.1278ZM46.4208 18.7216C46.7219 18.7216 46.9734 18.6364 47.1751 18.4659C47.3768 18.2926 47.5288 18.0568 47.631 17.7585C47.7362 17.4602 47.7887 17.1207 47.7887 16.7401C47.7887 16.3594 47.7362 16.0199 47.631 15.7216C47.5288 15.4233 47.3768 15.1875 47.1751 15.0142C46.9734 14.8409 46.7219 14.7543 46.4208 14.7543C46.1168 14.7543 45.8612 14.8409 45.6538 15.0142C45.4492 15.1875 45.2944 15.4233 45.1893 15.7216C45.087 16.0199 45.0359 16.3594 45.0359 16.7401C45.0359 17.1207 45.087 17.4602 45.1893 17.7585C45.2944 18.0568 45.4492 18.2926 45.6538 18.4659C45.8612 18.6364 46.1168 18.7216 46.4208 18.7216ZM50.8143 20V13.4545H52.5444V14.6094H52.6211C52.7575 14.2259 52.9847 13.9233 53.3029 13.7017C53.6211 13.4801 54.0018 13.3693 54.445 13.3693C54.8938 13.3693 55.2759 13.4815 55.5913 13.706C55.9066 13.9276 56.1168 14.2287 56.2219 14.6094H56.2901C56.4237 14.2344 56.6651 13.9347 57.0146 13.7102C57.3668 13.483 57.783 13.3693 58.2631 13.3693C58.8739 13.3693 59.3697 13.5639 59.7504 13.9531C60.1339 14.3395 60.3256 14.8878 60.3256 15.598V20H58.5146V15.956C58.5146 15.5923 58.418 15.3196 58.2248 15.1378C58.0316 14.956 57.7901 14.8651 57.5004 14.8651C57.1708 14.8651 56.9137 14.9702 56.729 15.1804C56.5444 15.3878 56.4521 15.6619 56.4521 16.0028V20H54.6921V15.9176C54.6921 15.5966 54.5998 15.3409 54.4151 15.1506C54.2333 14.9602 53.9933 14.8651 53.695 14.8651C53.4933 14.8651 53.3114 14.9162 53.1495 15.0185C52.9904 15.1179 52.864 15.2585 52.7702 15.4403C52.6765 15.6193 52.6296 15.8295 52.6296 16.071V20H50.8143ZM64.7425 20.1278C64.0692 20.1278 63.4897 19.9915 63.0039 19.7188C62.521 19.4432 62.1488 19.054 61.8874 18.5511C61.6261 18.0455 61.4954 17.4474 61.4954 16.7571C61.4954 16.0838 61.6261 15.4929 61.8874 14.9844C62.1488 14.4759 62.5167 14.0795 62.9911 13.7955C63.4684 13.5114 64.0281 13.3693 64.6701 13.3693C65.1019 13.3693 65.5039 13.4389 65.8761 13.5781C66.2511 13.7145 66.5778 13.9205 66.8562 14.196C67.1374 14.4716 67.3562 14.8182 67.5124 15.2358C67.6687 15.6506 67.7468 16.1364 67.7468 16.6932V17.1918H62.2198V16.0668H66.038C66.038 15.8054 65.9812 15.5739 65.8675 15.3722C65.7539 15.1705 65.5962 15.0128 65.3945 14.8991C65.1957 14.7827 64.9641 14.7244 64.6999 14.7244C64.4244 14.7244 64.18 14.7884 63.967 14.9162C63.7567 15.0412 63.592 15.2102 63.4727 15.4233C63.3533 15.6335 63.2923 15.8679 63.2894 16.1264V17.196C63.2894 17.5199 63.3491 17.7997 63.4684 18.0355C63.5906 18.2713 63.7624 18.4531 63.984 18.581C64.2056 18.7088 64.4684 18.7727 64.7724 18.7727C64.9741 18.7727 65.1587 18.7443 65.3263 18.6875C65.494 18.6307 65.6374 18.5455 65.7567 18.4318C65.8761 18.3182 65.967 18.179 66.0295 18.0142L67.7085 18.125C67.6232 18.5284 67.4485 18.8807 67.1843 19.1818C66.9229 19.4801 66.5849 19.7131 66.1701 19.8807C65.7582 20.0455 65.2823 20.1278 64.7425 20.1278ZM74.3775 15.321L72.7156 15.4233C72.6871 15.2812 72.6261 15.1534 72.5323 15.0398C72.4386 14.9233 72.315 14.831 72.1616 14.7628C72.011 14.6918 71.8306 14.6562 71.6204 14.6562C71.3391 14.6562 71.1019 14.7159 70.9087 14.8352C70.7156 14.9517 70.619 15.108 70.619 15.304C70.619 15.4602 70.6815 15.5923 70.8065 15.7003C70.9315 15.8082 71.146 15.8949 71.4499 15.9602L72.6346 16.1989C73.271 16.3295 73.7454 16.5398 74.0579 16.8295C74.3704 17.1193 74.5266 17.5 74.5266 17.9716C74.5266 18.4006 74.4002 18.777 74.1474 19.1009C73.8974 19.4247 73.5536 19.6776 73.1161 19.8594C72.6815 20.0384 72.18 20.1278 71.6119 20.1278C70.7454 20.1278 70.055 19.9474 69.5408 19.5866C69.0295 19.223 68.7298 18.7287 68.6417 18.1037L70.4272 18.0099C70.4812 18.2741 70.6119 18.4759 70.8192 18.6151C71.0266 18.7514 71.2923 18.8196 71.6161 18.8196C71.9343 18.8196 72.19 18.7585 72.3832 18.6364C72.5792 18.5114 72.6786 18.3509 72.6815 18.1548C72.6786 17.9901 72.609 17.8551 72.4727 17.75C72.3363 17.642 72.1261 17.5597 71.842 17.5028L70.7085 17.277C70.0692 17.1491 69.5934 16.9276 69.2809 16.6122C68.9712 16.2969 68.8164 15.8949 68.8164 15.4062C68.8164 14.9858 68.93 14.6236 69.1573 14.3196C69.3874 14.0156 69.7099 13.7812 70.1246 13.6165C70.5423 13.4517 71.0309 13.3693 71.5906 13.3693C72.4173 13.3693 73.0678 13.544 73.5423 13.8935C74.0195 14.2429 74.2979 14.7187 74.3775 15.321ZM79.1513 13.4545V14.8182H75.2095V13.4545H79.1513ZM76.1044 11.8864H77.9197V17.9886C77.9197 18.1562 77.9453 18.2869 77.9964 18.3807C78.0476 18.4716 78.1186 18.5355 78.2095 18.5724C78.3033 18.6094 78.4112 18.6278 78.5334 18.6278C78.6186 18.6278 78.7038 18.6207 78.7891 18.6065C78.8743 18.5895 78.9396 18.5767 78.9851 18.5682L79.2706 19.919C79.1797 19.9474 79.0518 19.9801 78.8871 20.017C78.7223 20.0568 78.522 20.081 78.2862 20.0895C77.8487 20.1065 77.4652 20.0483 77.1357 19.9148C76.8089 19.7812 76.5547 19.5739 76.3729 19.2926C76.1911 19.0114 76.1016 18.6562 76.1044 18.2273V11.8864ZM80.3338 20V13.4545H82.1491V20H80.3338ZM81.2457 12.6108C80.9759 12.6108 80.7443 12.5213 80.5511 12.3423C80.3608 12.1605 80.2656 11.9432 80.2656 11.6903C80.2656 11.4403 80.3608 11.2259 80.5511 11.0469C80.7443 10.8651 80.9759 10.7741 81.2457 10.7741C81.5156 10.7741 81.7457 10.8651 81.9361 11.0469C82.1293 11.2259 82.2259 11.4403 82.2259 11.6903C82.2259 11.9432 82.1293 12.1605 81.9361 12.3423C81.7457 12.5213 81.5156 12.6108 81.2457 12.6108ZM86.5607 20.1278C85.8903 20.1278 85.3136 19.9858 84.8306 19.7017C84.3505 19.4148 83.9812 19.017 83.7227 18.5085C83.467 18 83.3391 17.4148 83.3391 16.7528C83.3391 16.0824 83.4684 15.4943 83.7269 14.9886C83.9883 14.4801 84.359 14.0838 84.8391 13.7997C85.3192 13.5128 85.8903 13.3693 86.5522 13.3693C87.1232 13.3693 87.6232 13.473 88.0522 13.6804C88.4812 13.8878 88.8207 14.179 89.0707 14.554C89.3207 14.929 89.4585 15.3693 89.484 15.875H87.771C87.7227 15.5483 87.5948 15.2855 87.3874 15.0866C87.1829 14.8849 86.9144 14.7841 86.582 14.7841C86.3008 14.7841 86.055 14.8608 85.8448 15.0142C85.6374 15.1648 85.4755 15.3849 85.359 15.6747C85.2425 15.9645 85.1843 16.3153 85.1843 16.7273C85.1843 17.1449 85.2411 17.5 85.3548 17.7926C85.4712 18.0852 85.6346 18.3082 85.8448 18.4616C86.055 18.6151 86.3008 18.6918 86.582 18.6918C86.7894 18.6918 86.9755 18.6491 87.1403 18.5639C87.3079 18.4787 87.4457 18.3551 87.5536 18.1932C87.6644 18.0284 87.7369 17.831 87.771 17.6009H89.484C89.4556 18.1009 89.3192 18.5412 89.0749 18.9219C88.8335 19.2997 88.4996 19.5952 88.0735 19.8082C87.6474 20.0213 87.1431 20.1278 86.5607 20.1278ZM98.1921 13.7827C98.158 13.4389 98.0117 13.1719 97.7532 12.9815C97.4947 12.7912 97.1438 12.696 96.7006 12.696C96.3995 12.696 96.1452 12.7386 95.9379 12.8239C95.7305 12.9062 95.5714 13.0213 95.4606 13.169C95.3526 13.3168 95.2987 13.4844 95.2987 13.6719C95.293 13.8281 95.3256 13.9645 95.3967 14.081C95.4705 14.1974 95.5714 14.2983 95.6992 14.3835C95.8271 14.4659 95.9748 14.5384 96.1424 14.6009C96.31 14.6605 96.489 14.7116 96.6793 14.7543L97.4634 14.9418C97.8441 15.027 98.1935 15.1406 98.5117 15.2827C98.8299 15.4247 99.1055 15.5994 99.3384 15.8068C99.5714 16.0142 99.7518 16.2585 99.8796 16.5398C100.01 16.821 100.077 17.1435 100.08 17.5071C100.077 18.0412 99.9407 18.5043 99.6708 18.8963C99.4038 19.2855 99.0174 19.5881 98.5117 19.804C98.0089 20.017 97.4023 20.1236 96.6921 20.1236C95.9876 20.1236 95.3739 20.0156 94.8512 19.7997C94.3313 19.5838 93.9251 19.2642 93.6325 18.8409C93.3427 18.4148 93.1907 17.8878 93.1765 17.2599H94.962C94.9819 17.5526 95.0657 17.7969 95.2134 17.9929C95.364 18.1861 95.5643 18.3324 95.8143 18.4318C96.0671 18.5284 96.3526 18.5767 96.6708 18.5767C96.9833 18.5767 97.2546 18.5312 97.4847 18.4403C97.7177 18.3494 97.8981 18.223 98.0259 18.0611C98.1538 17.8991 98.2177 17.7131 98.2177 17.5028C98.2177 17.3068 98.1594 17.142 98.043 17.0085C97.9293 16.875 97.7617 16.7614 97.5401 16.6676C97.3214 16.5739 97.0529 16.4886 96.7347 16.4119L95.7844 16.1733C95.0487 15.9943 94.4677 15.7145 94.0415 15.3338C93.6154 14.9531 93.4038 14.4403 93.4066 13.7955C93.4038 13.267 93.5444 12.8054 93.8285 12.4105C94.1154 12.0156 94.5089 11.7074 95.0089 11.4858C95.5089 11.2642 96.0771 11.1534 96.7134 11.1534C97.3612 11.1534 97.9265 11.2642 98.4094 11.4858C98.8952 11.7074 99.2731 12.0156 99.543 12.4105C99.8129 12.8054 99.9521 13.2628 99.9606 13.7827H98.1921ZM101.287 20V13.4545H103.102V20H101.287ZM102.199 12.6108C101.929 12.6108 101.697 12.5213 101.504 12.3423C101.314 12.1605 101.219 11.9432 101.219 11.6903C101.219 11.4403 101.314 11.2259 101.504 11.0469C101.697 10.8651 101.929 10.7741 102.199 10.7741C102.469 10.7741 102.699 10.8651 102.889 11.0469C103.082 11.2259 103.179 11.4403 103.179 11.6903C103.179 11.9432 103.082 12.1605 102.889 12.3423C102.699 12.5213 102.469 12.6108 102.199 12.6108ZM108.038 13.4545V14.8182H104.096V13.4545H108.038ZM104.991 11.8864H106.806V17.9886C106.806 18.1562 106.832 18.2869 106.883 18.3807C106.934 18.4716 107.005 18.5355 107.096 18.5724C107.19 18.6094 107.298 18.6278 107.42 18.6278C107.505 18.6278 107.591 18.6207 107.676 18.6065C107.761 18.5895 107.826 18.5767 107.872 18.5682L108.157 19.919C108.066 19.9474 107.939 19.9801 107.774 20.017C107.609 20.0568 107.409 20.081 107.173 20.0895C106.735 20.1065 106.352 20.0483 106.022 19.9148C105.696 19.7812 105.441 19.5739 105.26 19.2926C105.078 19.0114 104.988 18.6562 104.991 18.2273V11.8864ZM112.133 20.1278C111.46 20.1278 110.88 19.9915 110.395 19.7188C109.912 19.4432 109.539 19.054 109.278 18.5511C109.017 18.0455 108.886 17.4474 108.886 16.7571C108.886 16.0838 109.017 15.4929 109.278 14.9844C109.539 14.4759 109.907 14.0795 110.382 13.7955C110.859 13.5114 111.419 13.3693 112.061 13.3693C112.493 13.3693 112.895 13.4389 113.267 13.5781C113.642 13.7145 113.968 13.9205 114.247 14.196C114.528 14.4716 114.747 14.8182 114.903 15.2358C115.059 15.6506 115.137 16.1364 115.137 16.6932V17.1918H109.61V16.0668H113.429C113.429 15.8054 113.372 15.5739 113.258 15.3722C113.145 15.1705 112.987 15.0128 112.785 14.8991C112.586 14.7827 112.355 14.7244 112.091 14.7244C111.815 14.7244 111.571 14.7884 111.358 14.9162C111.147 15.0412 110.983 15.2102 110.863 15.4233C110.744 15.6335 110.683 15.8679 110.68 16.1264V17.196C110.68 17.5199 110.74 17.7997 110.859 18.0355C110.981 18.2713 111.153 18.4531 111.375 18.581C111.596 18.7088 111.859 18.7727 112.163 18.7727C112.365 18.7727 112.549 18.7443 112.717 18.6875C112.885 18.6307 113.028 18.5455 113.147 18.4318C113.267 18.3182 113.358 18.179 113.42 18.0142L115.099 18.125C115.014 18.5284 114.839 18.8807 114.575 19.1818C114.314 19.4801 113.975 19.7131 113.561 19.8807C113.149 20.0455 112.673 20.1278 112.133 20.1278Z" fill="white"/>
<path d="M124.276 21.016L123.453 20.2495L127.351 16.0603L123.448 11.7555L124.281 11L128.879 16.0701L124.276 21.016V21.016Z" fill="white"/>
</svg>
