<svg width="140" height="31" viewBox="0 0 140 31" fill="none" xmlns="http://www.w3.org/2000/svg">
<path d="M0 5C0 2.23858 2.23858 0 5 0H135C137.761 0 140 2.23858 140 5V26C140 28.7614 137.761 31 135 31H5C2.23857 31 0 28.7614 0 26V5Z" fill="#5F5F5F"/>
<path d="M45.224 11.602V12.967H51.633V11.602H45.224ZM45.562 14.202V15.515H51.36V14.202H45.562ZM45.081 17.062V18.336H51.854V17.062H45.081ZM47.694 12.031V17.738H49.137V12.031H47.694ZM49.553 15.931C49.93 16.334 50.372 16.906 50.58 17.27L51.62 16.685C51.399 16.334 50.931 15.788 50.541 15.411L49.553 15.931ZM42.988 9.47V21.157H44.574V10.9H52.296V21.157H53.973V9.47H42.988ZM43.846 19.077V20.507H53.063V19.077H43.846ZM58.874 10.861V12.33H62.059V10.861H58.874ZM64.321 8.989V21.144H65.946V8.989H64.321ZM57.444 14.709C58.419 15.294 59.654 16.204 60.213 16.854L61.045 15.528C60.46 14.917 59.199 14.072 58.224 13.539L57.444 14.709ZM59.043 8.95C58.471 11.303 57.405 13.487 55.975 14.787C56.339 15.021 57.002 15.528 57.275 15.801C58.731 14.293 59.901 11.888 60.59 9.275L59.043 8.95ZM63.515 12.122L62.189 12.603C63.398 14.93 65.348 17.049 67.532 18.206C67.792 17.79 68.286 17.166 68.663 16.841C66.544 15.905 64.529 14.033 63.515 12.122ZM61.63 10.861V11.212C61.019 15.606 59.121 18.44 56.352 19.896C56.729 20.13 57.327 20.715 57.587 21.066C60.395 19.467 62.449 16.178 63.216 11.147L62.189 10.809L61.916 10.861H61.63ZM70.249 11.381V12.837H75.293V11.381H70.249ZM72.095 9.145V12.096H73.551V9.145H72.095ZM78.361 11.355V12.837H82.144V11.355H78.361ZM76.19 19.09V20.546H80.844V19.09H76.19ZM77.581 8.95V15.723H79.193V8.95H77.581ZM75.501 15.086V21.157H77.009V16.542H80.103V21.105H81.689V15.086H75.501ZM69.963 18.466L70.275 20.026C71.731 19.701 73.655 19.259 75.436 18.83L75.28 17.387C73.369 17.816 71.315 18.232 69.963 18.466ZM70.587 13.448C70.86 14.839 71.068 16.659 71.042 17.842L72.381 17.582C72.355 16.373 72.147 14.618 71.822 13.214L70.587 13.448ZM73.486 13.084C73.421 14.566 73.174 16.594 72.914 17.855L74.214 18.115C74.487 16.906 74.799 14.995 75.007 13.344L73.486 13.084ZM88.982 8.963V13.474H90.568V8.963H88.982ZM86.811 14.241H92.791V15.905H86.811V14.241ZM85.329 12.785V17.348H94.377V12.785H85.329ZM89.71 10.107V11.563H95.235V10.107H89.71ZM87.487 18.336C87.643 19.233 87.747 20.39 87.747 21.092L89.333 20.897C89.307 20.208 89.164 19.077 88.969 18.193L87.487 18.336ZM90.165 18.349C90.529 19.207 90.919 20.338 91.049 21.014L92.583 20.637C92.414 19.935 91.985 18.856 91.582 18.037L90.165 18.349ZM92.804 18.271C93.428 19.142 94.13 20.338 94.403 21.079L95.911 20.494C95.586 19.74 94.832 18.596 94.208 17.764L92.804 18.271ZM85.342 17.868C84.978 18.817 84.341 19.857 83.717 20.416L85.16 21.131C85.836 20.416 86.473 19.298 86.837 18.245L85.342 17.868Z" fill="white"/>
<path d="M106.276 19.9273L105.453 19.1607L109.351 14.9715L105.448 10.6668L106.281 9.91125L110.879 14.9814L106.276 19.9273V19.9273Z" fill="white"/>
<g clip-path="url(#clip0_13_74)">
<path d="M23.5727 12.6503C23.4777 12.3526 23.37 12.0613 23.2497 11.7763C23.0112 11.211 22.7185 10.6701 22.3757 10.1613C22.192 9.92059 22.0115 9.68626 21.8342 9.45826C20.9426 8.37645 19.8226 7.50537 18.5547 6.90751C17.2867 6.30965 15.9021 5.99982 14.5002 6.00026C13.8621 5.99962 13.2255 6.06328 12.6002 6.19026C11.6872 6.37618 10.8068 6.69632 9.9877 7.14026C8.08581 8.16775 6.59121 9.81315 5.75071 11.8048C5.63037 12.0898 5.52271 12.3716 5.42771 12.6503C5.1411 13.573 4.99694 14.534 5.00021 15.5003C4.99694 16.4665 5.1411 17.4275 5.42771 18.3503C5.52271 18.6479 5.63037 18.9393 5.75071 19.2243C6.10959 20.0713 6.5896 20.8617 7.17571 21.5708C7.37204 21.8051 7.57787 22.0299 7.79321 22.2453C8.43912 22.8922 9.17504 23.4426 9.9782 23.8793C10.8014 24.3175 11.685 24.6312 12.6002 24.8103C13.2255 24.9372 13.8621 25.0009 14.5002 25.0003C16.3677 24.9998 18.1936 24.449 19.7497 23.4166C21.3059 22.3842 22.5233 20.9161 23.2497 19.1958C23.37 18.9108 23.4777 18.6194 23.5727 18.3218C23.8564 17.4081 24.0006 16.4569 24.0002 15.5003C24.0035 14.534 23.8593 13.573 23.5727 12.6503V12.6503ZM14.5002 23.1003H14.2722C14.2375 22.6766 14.2375 22.2509 14.2722 21.8273C14.5547 20.8259 15.0839 19.9113 15.8112 19.1673C16.1483 19.0234 16.509 18.9429 16.8752 18.9298C17.3842 18.9267 17.8805 18.7712 18.3002 18.4833C18.4094 18.3766 18.4894 18.2438 18.5326 18.0974C18.5759 17.9511 18.5809 17.7961 18.5472 17.6473C18.442 17.2392 18.2569 16.8561 18.0025 16.5201C17.7481 16.1842 17.4295 15.9021 17.0652 15.6903C16.6353 15.5525 16.1867 15.482 15.7352 15.4813C15.0731 15.4744 14.4173 15.3522 13.7972 15.1203C13.6153 14.9917 13.4495 14.8418 13.3032 14.6738C12.9872 14.2959 12.5824 14.0021 12.1252 13.8188C11.9333 13.7858 11.7366 13.7941 11.5482 13.8433C11.3598 13.8924 11.184 13.9812 11.0327 14.1038C10.3755 14.5439 9.5885 14.7482 8.8002 14.6833C8.1844 14.6019 7.57494 14.4781 6.97621 14.3128C7.25945 12.5222 8.1734 10.8919 9.55311 9.71599C10.9328 8.54011 12.6874 7.89612 14.5002 7.90026H15.1367C15.0565 8.5709 15.1016 9.25059 15.2697 9.90476C15.524 10.3213 15.9288 10.6241 16.4002 10.7503L16.6852 10.8833C16.7893 11.269 16.7893 11.6755 16.6852 12.0613C16.6005 12.314 16.6005 12.5875 16.6852 12.8403C17.3082 13.4734 18.0993 13.9151 18.9652 14.1133H19.1837C19.2673 14.1166 19.3507 14.1032 19.429 14.0738C19.5073 14.0445 19.5789 13.9997 19.6397 13.9423C19.8581 13.6666 20.0021 13.3395 20.0577 12.9923C20.2389 13.0548 20.4323 13.0737 20.6222 13.0473C20.812 13.0208 20.993 12.9499 21.1502 12.8403C21.2967 12.6634 21.3803 12.4428 21.3877 12.2133C21.9447 13.3745 22.1975 14.6582 22.1224 15.9439C22.0472 17.2296 21.6465 18.4751 20.958 19.5635C20.2694 20.6519 19.3156 21.5475 18.186 22.1661C17.0564 22.7848 15.7881 23.1062 14.5002 23.1003V23.1003Z" fill="#DBDBDB"/>
</g>
<defs>
<clipPath id="clip0_13_74">
<rect width="19" height="19" fill="white" transform="translate(5 6)"/>
</clipPath>
</defs>
</svg>
