<svg width="471" height="120" viewBox="0 0 471 120" fill="none" xmlns="http://www.w3.org/2000/svg">
<path d="M10.179 6.96001L17.316 101.16C17.433 102.6 18.369 103.8 19.656 104.16L57.447 116.4C58.149 116.64 58.851 116.64 59.553 116.4L97.344 104.16C98.631 103.68 99.567 102.48 99.684 101.16L106.821 6.96001C106.938 4.92001 105.417 3.24001 103.428 3.24001H13.572C11.583 3.24001 9.945 4.92001 10.179 6.96001Z" fill="#FC490B"/>
<path d="M88.452 36.24H41.652L43.056 49.56H87.399L84.474 87.72L58.5 96.12L32.526 87.72L31.005 67.8H44.577V77.52L58.851 81.48L73.008 77.52L74.178 62.04H30.537L27.612 24H89.388L88.452 36.24Z" fill="white"/>
<g filter="url(#filter0_d_3_66)">
<path d="M138.35 64V25.4545H146.5V41.3583H163.043V25.4545H171.174V64H163.043V48.0774H146.5V64H138.35ZM178.015 32.1736V25.4545H209.672V32.1736H197.871V64H189.816V32.1736H178.015ZM216.475 25.4545H226.526L237.141 51.3523H237.593L248.208 25.4545H258.258V64H250.353V38.9116H250.033L240.058 63.8118H234.675L224.7 38.8175H224.38V64H216.475V25.4545ZM266.563 64V25.4545H274.712V57.2809H291.237V64H266.563ZM337.639 37.9141C337.376 36.9981 337.006 36.1888 336.529 35.4861C336.052 34.771 335.469 34.1687 334.779 33.6793C334.101 33.1774 333.323 32.7947 332.445 32.5312C331.579 32.2678 330.619 32.136 329.565 32.136C327.595 32.136 325.864 32.6254 324.371 33.604C322.89 34.5827 321.736 36.0069 320.907 37.8764C320.079 39.7334 319.665 42.0045 319.665 44.6896C319.665 47.3748 320.073 49.6584 320.889 51.5405C321.704 53.4226 322.859 54.8593 324.352 55.8505C325.845 56.8292 327.608 57.3185 329.64 57.3185C331.485 57.3185 333.06 56.9923 334.365 56.3398C335.682 55.6748 336.686 54.7401 337.376 53.5355C338.079 52.331 338.43 50.9068 338.43 49.2631L340.086 49.5078H330.149V43.3722H346.278V48.228C346.278 51.6158 345.563 54.5268 344.133 56.9609C342.702 59.3826 340.732 61.2521 338.223 62.5696C335.713 63.8745 332.84 64.527 329.603 64.527C325.989 64.527 322.815 63.7302 320.079 62.1367C317.344 60.5307 315.211 58.2533 313.68 55.3047C312.162 52.3435 311.403 48.8303 311.403 44.7649C311.403 41.6406 311.855 38.8551 312.758 36.4084C313.674 33.9491 314.954 31.8662 316.597 30.1598C318.241 28.4534 320.155 27.1547 322.338 26.2638C324.521 25.373 326.886 24.9276 329.433 24.9276C331.617 24.9276 333.649 25.2475 335.531 25.8874C337.414 26.5148 339.082 27.4057 340.538 28.56C342.006 29.7144 343.204 31.0883 344.133 32.6818C345.061 34.2628 345.657 36.0069 345.921 37.9141H337.639ZM372.378 51.6911V35.0909H380.396V64H372.698V58.7489H372.397C371.744 60.4428 370.659 61.8042 369.141 62.8331C367.635 63.862 365.797 64.3764 363.626 64.3764C361.694 64.3764 359.994 63.9373 358.526 63.0589C357.058 62.1806 355.909 60.9322 355.081 59.3136C354.266 57.695 353.852 55.7564 353.839 53.4979V35.0909H361.857V52.0675C361.869 53.7739 362.327 55.1228 363.231 56.114C364.134 57.1052 365.345 57.6009 366.863 57.6009C367.829 57.6009 368.733 57.3813 369.574 56.9421C370.414 56.4904 371.092 55.8254 371.606 54.9471C372.133 54.0688 372.39 52.9834 372.378 51.6911ZM388.399 64V35.0909H396.417V64H388.399ZM392.427 31.3643C391.235 31.3643 390.212 30.9691 389.359 30.1786C388.518 29.3756 388.098 28.4157 388.098 27.299C388.098 26.1948 388.518 25.2475 389.359 24.457C390.212 23.654 391.235 23.2525 392.427 23.2525C393.619 23.2525 394.635 23.654 395.476 24.457C396.329 25.2475 396.755 26.1948 396.755 27.299C396.755 28.4157 396.329 29.3756 395.476 30.1786C394.635 30.9691 393.619 31.3643 392.427 31.3643ZM415.082 64.4705C412.886 64.4705 410.897 63.9059 409.116 62.7766C407.347 61.6348 405.941 59.9598 404.9 57.7514C403.871 55.5305 403.357 52.8078 403.357 49.5831C403.357 46.2706 403.89 43.5165 404.956 41.3207C406.023 39.1123 407.441 37.4624 409.21 36.3707C410.992 35.2666 412.943 34.7145 415.063 34.7145C416.682 34.7145 418.031 34.9905 419.11 35.5426C420.201 36.0821 421.08 36.7597 421.745 37.5753C422.422 38.3783 422.937 39.1688 423.288 39.9467H423.533V25.4545H431.532V64H423.627V59.37H423.288C422.912 60.1731 422.378 60.9698 421.688 61.7603C421.011 62.5382 420.126 63.1844 419.034 63.6989C417.955 64.2133 416.638 64.4705 415.082 64.4705ZM417.623 58.0902C418.915 58.0902 420.007 57.7389 420.898 57.0362C421.801 56.321 422.491 55.3235 422.968 54.0437C423.457 52.7638 423.702 51.2644 423.702 49.5455C423.702 47.8265 423.464 46.3333 422.987 45.066C422.51 43.7988 421.82 42.8201 420.917 42.13C420.013 41.4399 418.915 41.0948 417.623 41.0948C416.305 41.0948 415.195 41.4524 414.292 42.1676C413.388 42.8828 412.704 43.8741 412.24 45.1413C411.776 46.4086 411.544 47.8767 411.544 49.5455C411.544 51.2268 411.776 52.7137 412.24 54.006C412.717 55.2859 413.401 56.2897 414.292 57.0174C415.195 57.7326 416.305 58.0902 417.623 58.0902ZM452.888 64.5646C449.915 64.5646 447.355 63.9624 445.209 62.7578C443.076 61.5407 441.433 59.8217 440.278 57.6009C439.124 55.3674 438.547 52.7262 438.547 49.6772C438.547 46.7035 439.124 44.0936 440.278 41.8477C441.433 39.6017 443.058 37.8513 445.153 36.5966C447.261 35.3419 449.733 34.7145 452.568 34.7145C454.476 34.7145 456.251 35.0219 457.895 35.6367C459.551 36.239 460.994 37.1487 462.224 38.3658C463.466 39.5829 464.432 41.1136 465.122 42.9581C465.812 44.79 466.157 46.9356 466.157 49.3949V51.5969H441.746V46.6282H458.61C458.61 45.4738 458.359 44.4512 457.857 43.5604C457.355 42.6695 456.659 41.9731 455.768 41.4712C454.89 40.9568 453.867 40.6996 452.7 40.6996C451.483 40.6996 450.404 40.9819 449.463 41.5465C448.534 42.0986 447.807 42.8452 447.28 43.7862C446.753 44.7147 446.483 45.7499 446.47 46.8917V51.6158C446.47 53.0462 446.734 54.2821 447.261 55.3235C447.8 56.3649 448.56 57.168 449.538 57.7326C450.517 58.2972 451.678 58.5795 453.02 58.5795C453.911 58.5795 454.727 58.4541 455.467 58.2031C456.207 57.9522 456.841 57.5758 457.368 57.0739C457.895 56.572 458.296 55.9571 458.572 55.2294L465.988 55.7188C465.611 57.5005 464.84 59.0563 463.673 60.3864C462.518 61.7038 461.025 62.7327 459.193 63.473C457.374 64.2008 455.272 64.5646 452.888 64.5646Z" fill="black"/>
<path d="M138.35 64H137.35V65H138.35V64ZM138.35 25.4545V24.4545H137.35V25.4545H138.35ZM146.5 25.4545H147.5V24.4545H146.5V25.4545ZM146.5 41.3583H145.5V42.3583H146.5V41.3583ZM163.043 41.3583V42.3583H164.043V41.3583H163.043ZM163.043 25.4545V24.4545H162.043V25.4545H163.043ZM171.174 25.4545H172.174V24.4545H171.174V25.4545ZM171.174 64V65H172.174V64H171.174ZM163.043 64H162.043V65H163.043V64ZM163.043 48.0774H164.043V47.0774H163.043V48.0774ZM146.5 48.0774V47.0774H145.5V48.0774H146.5ZM146.5 64V65H147.5V64H146.5ZM139.35 64V25.4545H137.35V64H139.35ZM138.35 26.4545H146.5V24.4545H138.35V26.4545ZM145.5 25.4545V41.3583H147.5V25.4545H145.5ZM146.5 42.3583H163.043V40.3583H146.5V42.3583ZM164.043 41.3583V25.4545H162.043V41.3583H164.043ZM163.043 26.4545H171.174V24.4545H163.043V26.4545ZM170.174 25.4545V64H172.174V25.4545H170.174ZM171.174 63H163.043V65H171.174V63ZM164.043 64V48.0774H162.043V64H164.043ZM163.043 47.0774H146.5V49.0774H163.043V47.0774ZM145.5 48.0774V64H147.5V48.0774H145.5ZM146.5 63H138.35V65H146.5V63ZM178.015 32.1736H177.015V33.1736H178.015V32.1736ZM178.015 25.4545V24.4545H177.015V25.4545H178.015ZM209.672 25.4545H210.672V24.4545H209.672V25.4545ZM209.672 32.1736V33.1736H210.672V32.1736H209.672ZM197.871 32.1736V31.1736H196.871V32.1736H197.871ZM197.871 64V65H198.871V64H197.871ZM189.816 64H188.816V65H189.816V64ZM189.816 32.1736H190.816V31.1736H189.816V32.1736ZM179.015 32.1736V25.4545H177.015V32.1736H179.015ZM178.015 26.4545H209.672V24.4545H178.015V26.4545ZM208.672 25.4545V32.1736H210.672V25.4545H208.672ZM209.672 31.1736H197.871V33.1736H209.672V31.1736ZM196.871 32.1736V64H198.871V32.1736H196.871ZM197.871 63H189.816V65H197.871V63ZM190.816 64V32.1736H188.816V64H190.816ZM189.816 31.1736H178.015V33.1736H189.816V31.1736ZM216.475 25.4545V24.4545H215.475V25.4545H216.475ZM226.526 25.4545L227.451 25.0753L227.197 24.4545H226.526V25.4545ZM237.141 51.3523L236.216 51.7315L236.47 52.3523H237.141V51.3523ZM237.593 51.3523V52.3523H238.264L238.518 51.7315L237.593 51.3523ZM248.208 25.4545V24.4545H247.537L247.282 25.0753L248.208 25.4545ZM258.258 25.4545H259.258V24.4545H258.258V25.4545ZM258.258 64V65H259.258V64H258.258ZM250.353 64H249.353V65H250.353V64ZM250.353 38.9116H251.353V37.9116H250.353V38.9116ZM250.033 38.9116V37.9116H249.357L249.105 38.5397L250.033 38.9116ZM240.058 63.8118V64.8118H240.735L240.986 64.1837L240.058 63.8118ZM234.675 63.8118L233.747 64.1825L233.998 64.8118H234.675V63.8118ZM224.7 38.8175L225.629 38.4468L225.378 37.8175H224.7V38.8175ZM224.38 38.8175V37.8175H223.38V38.8175H224.38ZM224.38 64V65H225.38V64H224.38ZM216.475 64H215.475V65H216.475V64ZM216.475 26.4545H226.526V24.4545H216.475V26.4545ZM225.601 25.8338L236.216 51.7315L238.066 50.973L227.451 25.0753L225.601 25.8338ZM237.141 52.3523H237.593V50.3523H237.141V52.3523ZM238.518 51.7315L249.133 25.8338L247.282 25.0753L236.667 50.973L238.518 51.7315ZM248.208 26.4545H258.258V24.4545H248.208V26.4545ZM257.258 25.4545V64H259.258V25.4545H257.258ZM258.258 63H250.353V65H258.258V63ZM251.353 64V38.9116H249.353V64H251.353ZM250.353 37.9116H250.033V39.9116H250.353V37.9116ZM249.105 38.5397L239.13 63.4399L240.986 64.1837L250.962 39.2834L249.105 38.5397ZM240.058 62.8118H234.675V64.8118H240.058V62.8118ZM235.604 63.4411L225.629 38.4468L223.771 39.1881L233.747 64.1825L235.604 63.4411ZM224.7 37.8175H224.38V39.8175H224.7V37.8175ZM223.38 38.8175V64H225.38V38.8175H223.38ZM224.38 63H216.475V65H224.38V63ZM217.475 64V25.4545H215.475V64H217.475ZM266.563 64H265.563V65H266.563V64ZM266.563 25.4545V24.4545H265.563V25.4545H266.563ZM274.712 25.4545H275.712V24.4545H274.712V25.4545ZM274.712 57.2809H273.712V58.2809H274.712V57.2809ZM291.237 57.2809H292.237V56.2809H291.237V57.2809ZM291.237 64V65H292.237V64H291.237ZM267.563 64V25.4545H265.563V64H267.563ZM266.563 26.4545H274.712V24.4545H266.563V26.4545ZM273.712 25.4545V57.2809H275.712V25.4545H273.712ZM274.712 58.2809H291.237V56.2809H274.712V58.2809ZM290.237 57.2809V64H292.237V57.2809H290.237ZM291.237 63H266.563V65H291.237V63ZM337.639 37.9141L336.678 38.1905L336.886 38.9141H337.639V37.9141ZM336.529 35.4861L335.697 36.0409L335.701 36.0476L336.529 35.4861ZM334.779 33.6793L334.183 34.4829L334.192 34.4891L334.2 34.4951L334.779 33.6793ZM332.445 32.5312L332.154 33.4879L332.157 33.4891L332.445 32.5312ZM324.371 33.604L323.822 32.7677L323.819 32.7698L324.371 33.604ZM320.907 37.8764L321.821 38.2837L321.822 38.2814L320.907 37.8764ZM324.352 55.8505L323.799 56.6836L323.804 56.6868L324.352 55.8505ZM334.365 56.3398L334.812 57.2343L334.815 57.2326L334.365 56.3398ZM337.376 53.5355L336.512 53.0316L336.508 53.0384L337.376 53.5355ZM338.43 49.2631L338.576 48.2739L337.43 48.1046V49.2631H338.43ZM340.086 49.5078V50.5078L340.232 48.5185L340.086 49.5078ZM330.149 49.5078H329.149V50.5078H330.149V49.5078ZM330.149 43.3722V42.3722H329.149V43.3722H330.149ZM346.278 43.3722H347.278V42.3722H346.278V43.3722ZM344.133 56.9609L344.994 57.4695L344.995 57.4676L344.133 56.9609ZM338.223 62.5696L338.684 63.4568L338.688 63.455L338.223 62.5696ZM320.079 62.1367L319.573 62.9991L319.576 63.0008L320.079 62.1367ZM313.68 55.3047L312.79 55.7609L312.793 55.7654L313.68 55.3047ZM312.758 36.4084L311.821 36.0594L311.82 36.062L312.758 36.4084ZM316.597 30.1598L317.318 30.8535H317.318L316.597 30.1598ZM322.338 26.2638L321.96 25.338L322.338 26.2638ZM335.531 25.8874L335.21 26.8342L335.215 26.8361L335.531 25.8874ZM340.538 28.56L339.916 29.3435L339.92 29.3461L340.538 28.56ZM344.133 32.6818L343.269 33.1853L343.27 33.1882L344.133 32.6818ZM345.921 37.9141V38.9141H347.068L346.911 37.7772L345.921 37.9141ZM338.6 37.6376C338.311 36.6325 337.899 35.7246 337.356 34.9246L335.701 36.0476C336.112 36.653 336.441 37.3638 336.678 38.1905L338.6 37.6376ZM337.361 34.9314C336.817 34.1161 336.149 33.4249 335.357 32.8636L334.2 34.4951C334.789 34.9125 335.287 35.4258 335.697 36.0408L337.361 34.9314ZM335.374 32.8758C334.596 32.2993 333.712 31.8672 332.732 31.5734L332.157 33.4891C332.935 33.7222 333.607 34.0556 334.183 34.4829L335.374 32.8758ZM332.736 31.5746C331.762 31.2781 330.702 31.136 329.565 31.136V33.136C330.536 33.136 331.396 33.2574 332.154 33.4879L332.736 31.5746ZM329.565 31.136C327.421 31.136 325.495 31.6713 323.822 32.7677L324.919 34.4404C326.232 33.5794 327.769 33.136 329.565 33.136V31.136ZM323.819 32.7698C322.156 33.8692 320.887 35.4543 319.993 37.4714L321.822 38.2814C322.585 36.5595 323.624 35.2962 324.922 34.4383L323.819 32.7698ZM319.994 37.4691C319.094 39.4884 318.665 41.907 318.665 44.6896H320.665C320.665 42.102 321.065 39.9785 321.821 38.2837L319.994 37.4691ZM318.665 44.6896C318.665 47.4712 319.087 49.8981 319.971 51.9381L321.806 51.1429C321.059 49.4186 320.665 47.2783 320.665 44.6896H318.665ZM319.971 51.9381C320.852 53.9712 322.122 55.5707 323.799 56.6836L324.905 55.0174C323.595 54.1479 322.556 52.8739 321.806 51.1429L319.971 51.9381ZM323.804 56.6868C325.481 57.7866 327.441 58.3185 329.64 58.3185V56.3185C327.775 56.3185 326.208 55.8718 324.9 55.0141L323.804 56.6868ZM329.64 58.3185C331.6 58.3185 333.336 57.972 334.812 57.2343L333.917 55.4454C332.783 56.0126 331.37 56.3185 329.64 56.3185V58.3185ZM334.815 57.2326C336.296 56.4852 337.45 55.4179 338.244 54.0326L336.508 53.0384C335.922 54.0622 335.068 54.8645 333.914 55.4471L334.815 57.2326ZM338.24 54.0394C339.046 52.6565 339.43 51.052 339.43 49.2631H337.43C337.43 50.7617 337.111 52.0054 336.512 53.0316L338.24 54.0394ZM338.284 50.2524L339.94 50.4971L340.232 48.5185L338.576 48.2739L338.284 50.2524ZM340.086 48.5078H330.149V50.5078H340.086V48.5078ZM331.149 49.5078V43.3722H329.149V49.5078H331.149ZM330.149 44.3722H346.278V42.3722H330.149V44.3722ZM345.278 43.3722V48.228H347.278V43.3722H345.278ZM345.278 48.228C345.278 51.4733 344.594 54.2018 343.27 56.4543L344.995 57.4676C346.532 54.8517 347.278 51.7582 347.278 48.228H345.278ZM343.272 56.4524C341.936 58.7127 340.104 60.4524 337.758 61.6842L338.688 63.455C341.36 62.0519 343.468 60.0524 344.994 57.4695L343.272 56.4524ZM337.761 61.6824C335.414 62.9031 332.703 63.527 329.603 63.527V65.527C332.977 65.527 336.013 64.8459 338.684 63.4568L337.761 61.6824ZM329.603 63.527C326.141 63.527 323.145 62.7651 320.583 61.2727L319.576 63.0008C322.485 64.6953 325.838 65.527 329.603 65.527V63.527ZM320.586 61.2744C318.021 59.7683 316.016 57.6338 314.568 54.8439L312.793 55.7654C314.406 58.8728 316.667 61.2931 319.573 62.9991L320.586 61.2744ZM314.57 54.8484C313.139 52.0564 312.403 48.7063 312.403 44.7649H310.403C310.403 48.9542 311.185 52.6306 312.79 55.7609L314.57 54.8484ZM312.403 44.7649C312.403 41.7361 312.841 39.0711 313.696 36.7548L311.82 36.062C310.868 38.6392 310.403 41.5452 310.403 44.7649H312.403ZM313.695 36.7574C314.568 34.4128 315.779 32.451 317.318 30.8535L315.877 29.4661C314.129 31.2815 312.78 33.4854 311.821 36.0594L313.695 36.7574ZM317.318 30.8535C318.865 29.247 320.662 28.0277 322.716 27.1897L321.96 25.338C319.647 26.2818 317.617 27.6597 315.877 29.4661L317.318 30.8535ZM322.716 27.1897C324.77 26.3516 327.005 25.9276 329.433 25.9276V23.9276C326.767 23.9276 324.273 24.3944 321.96 25.338L322.716 27.1897ZM329.433 25.9276C331.518 25.9276 333.441 26.2328 335.21 26.8342L335.853 24.9407C333.858 24.2622 331.715 23.9276 329.433 23.9276V25.9276ZM335.215 26.8361C336.994 27.4291 338.558 28.2664 339.916 29.3435L341.159 27.7765C339.606 26.5449 337.833 25.6005 335.848 24.9387L335.215 26.8361ZM339.92 29.3461C341.29 30.4236 342.404 31.702 343.269 33.1853L344.997 32.1784C344.004 30.4746 342.722 29.0052 341.156 27.7739L339.92 29.3461ZM343.27 33.1882C344.129 34.65 344.684 36.2675 344.93 38.0509L346.911 37.7772C346.631 35.7462 345.993 33.8755 344.995 32.1754L343.27 33.1882ZM345.921 36.9141H337.639V38.9141H345.921V36.9141ZM372.378 51.6911H371.378L371.378 51.7008L372.378 51.6911ZM372.378 35.0909V34.0909H371.378V35.0909H372.378ZM380.396 35.0909H381.396V34.0909H380.396V35.0909ZM380.396 64V65H381.396V64H380.396ZM372.698 64H371.698V65H372.698V64ZM372.698 58.7489H373.698V57.7489H372.698V58.7489ZM372.397 58.7489V57.7489H371.71L371.464 58.3895L372.397 58.7489ZM369.141 62.8331L368.58 62.0053L368.576 62.0075L369.141 62.8331ZM358.526 63.0589L359.039 62.2008L358.526 63.0589ZM355.081 59.3136L354.188 59.7636L354.191 59.769L355.081 59.3136ZM353.839 53.4979H352.839L352.839 53.5034L353.839 53.4979ZM353.839 35.0909V34.0909H352.839V35.0909H353.839ZM361.857 35.0909H362.857V34.0909H361.857V35.0909ZM361.857 52.0675H360.857L360.857 52.0748L361.857 52.0675ZM363.231 56.114L363.97 55.4404L363.231 56.114ZM369.574 56.9421L370.037 57.8285L370.047 57.823L369.574 56.9421ZM371.606 54.9471L370.749 54.4326L370.743 54.4417L371.606 54.9471ZM373.378 51.6911V35.0909H371.378V51.6911H373.378ZM372.378 36.0909H380.396V34.0909H372.378V36.0909ZM379.396 35.0909V64H381.396V35.0909H379.396ZM380.396 63H372.698V65H380.396V63ZM373.698 64V58.7489H371.698V64H373.698ZM372.698 57.7489H372.397V59.7489H372.698V57.7489ZM371.464 58.3895C370.885 59.8908 369.931 61.0896 368.58 62.0053L369.702 63.6609C371.387 62.5188 372.603 60.9948 373.33 59.1084L371.464 58.3895ZM368.576 62.0075C367.267 62.9025 365.635 63.3764 363.626 63.3764V65.3764C365.959 65.3764 368.003 64.8214 369.705 63.6587L368.576 62.0075ZM363.626 63.3764C361.851 63.3764 360.333 62.9747 359.039 62.2008L358.012 63.9171C359.655 64.8998 361.537 65.3764 363.626 65.3764V63.3764ZM359.039 62.2008C357.742 61.4249 356.72 60.3208 355.972 58.8581L354.191 59.769C355.099 61.5436 356.373 62.9364 358.012 63.9171L359.039 62.2008ZM355.974 58.8636C355.243 57.4126 354.851 55.6336 354.839 53.4923L352.839 53.5034C352.852 55.8792 353.288 57.9773 354.188 59.7635L355.974 58.8636ZM354.839 53.4979V35.0909H352.839V53.4979H354.839ZM353.839 36.0909H361.857V34.0909H353.839V36.0909ZM360.857 35.0909V52.0675H362.857V35.0909H360.857ZM360.857 52.0748C360.871 53.9585 361.381 55.5685 362.492 56.7876L363.97 55.4404C363.274 54.677 362.868 53.5893 362.857 52.0601L360.857 52.0748ZM362.492 56.7876C363.611 58.0153 365.105 58.6009 366.863 58.6009V56.6009C365.585 56.6009 364.658 56.1952 363.97 55.4404L362.492 56.7876ZM366.863 58.6009C367.988 58.6009 369.05 58.3437 370.037 57.8285L369.111 56.0558C368.416 56.4188 367.671 56.6009 366.863 56.6009V58.6009ZM370.047 57.823C371.06 57.2785 371.868 56.4784 372.469 55.4525L370.743 54.4417C370.315 55.1724 369.768 55.7023 369.1 56.0612L370.047 57.823ZM372.464 55.4616C373.108 54.3885 373.392 53.1104 373.378 51.6813L371.378 51.7008C371.389 52.8564 371.159 53.7491 370.749 54.4326L372.464 55.4616ZM388.399 64H387.399V65H388.399V64ZM388.399 35.0909V34.0909H387.399V35.0909H388.399ZM396.417 35.0909H397.417V34.0909H396.417V35.0909ZM396.417 64V65H397.417V64H396.417ZM389.359 30.1786L388.668 30.9017L388.674 30.907L388.679 30.9122L389.359 30.1786ZM389.359 24.457L390.044 25.1856L390.044 25.1852L389.359 24.457ZM395.476 24.457L394.785 25.1801L394.79 25.1854L394.796 25.1906L395.476 24.457ZM395.476 30.1786L396.161 30.9071L396.161 30.9068L395.476 30.1786ZM389.399 64V35.0909H387.399V64H389.399ZM388.399 36.0909H396.417V34.0909H388.399V36.0909ZM395.417 35.0909V64H397.417V35.0909H395.417ZM396.417 63H388.399V65H396.417V63ZM392.427 30.3643C391.48 30.3643 390.702 30.0596 390.038 29.4451L388.679 30.9122C389.722 31.8786 390.99 32.3643 392.427 32.3643V30.3643ZM390.05 29.4555C389.397 28.8325 389.098 28.1302 389.098 27.299H387.098C387.098 28.7012 387.639 29.9187 388.668 30.9017L390.05 29.4555ZM389.098 27.299C389.098 26.4844 389.394 25.7966 390.044 25.1856L388.674 23.7285C387.642 24.6984 387.098 25.9053 387.098 27.299H389.098ZM390.044 25.1852C390.708 24.5601 391.484 24.2525 392.427 24.2525V22.2525C390.985 22.2525 389.716 22.7479 388.673 23.7288L390.044 25.1852ZM392.427 24.2525C393.369 24.2525 394.135 24.5598 394.785 25.1801L396.166 23.7339C395.134 22.7482 393.869 22.2525 392.427 22.2525V24.2525ZM394.796 25.1906C395.457 25.8032 395.755 26.4896 395.755 27.299H397.755C397.755 25.9001 397.2 24.6918 396.155 23.7235L394.796 25.1906ZM395.755 27.299C395.755 28.1251 395.454 28.8259 394.79 29.4504L396.161 30.9068C397.204 29.9253 397.755 28.7063 397.755 27.299H395.755ZM394.791 29.4501C394.142 30.0599 393.373 30.3643 392.427 30.3643V32.3643C393.864 32.3643 395.128 31.8783 396.161 30.9071L394.791 29.4501ZM409.116 62.7766L408.573 63.6169L408.58 63.6213L409.116 62.7766ZM404.9 57.7514L403.992 58.1718L403.995 58.178L404.9 57.7514ZM404.956 41.3207L405.856 41.7576L405.857 41.7556L404.956 41.3207ZM409.21 36.3707L409.735 37.2218L409.737 37.2207L409.21 36.3707ZM419.11 35.5426L418.654 36.4329L418.667 36.4391L419.11 35.5426ZM421.745 37.5753L420.97 38.2072L420.975 38.2137L420.98 38.2202L421.745 37.5753ZM423.288 39.9467L422.377 40.3583L422.642 40.9467H423.288V39.9467ZM423.533 39.9467V40.9467H424.533V39.9467H423.533ZM423.533 25.4545V24.4545H422.533V25.4545H423.533ZM431.532 25.4545H432.532V24.4545H431.532V25.4545ZM431.532 64V65H432.532V64H431.532ZM423.627 64H422.627V65H423.627V64ZM423.627 59.37H424.627V58.37H423.627V59.37ZM423.288 59.37V58.37H422.652L422.383 58.9456L423.288 59.37ZM421.688 61.7603L420.935 61.1026L420.934 61.1035L421.688 61.7603ZM419.034 63.6989L418.608 62.7943L418.604 62.7962L419.034 63.6989ZM420.898 57.0362L421.517 57.8214L421.518 57.8203L420.898 57.0362ZM422.968 54.0437L422.034 53.6865L422.031 53.6946L422.968 54.0437ZM422.987 45.0661L423.923 44.7139L422.987 45.0661ZM414.292 42.1676L413.671 41.3836L414.292 42.1676ZM412.24 54.006L411.299 54.3441L411.303 54.3551L412.24 54.006ZM414.292 57.0174L413.659 57.7918L413.665 57.7967L413.671 57.8014L414.292 57.0174ZM415.082 63.4705C413.068 63.4705 411.266 62.9555 409.651 61.932L408.58 63.6213C410.529 64.8563 412.705 65.4705 415.082 65.4705V63.4705ZM409.658 61.9364C408.07 60.9112 406.779 59.3917 405.804 57.3249L403.995 58.178C405.104 60.5279 406.624 62.3584 408.574 63.6168L409.658 61.9364ZM405.807 57.3311C404.855 55.2767 404.357 52.7066 404.357 49.5831H402.357C402.357 52.9089 402.886 55.7843 403.993 58.1718L405.807 57.3311ZM404.357 49.5831C404.357 46.3707 404.875 43.7776 405.856 41.7576L404.057 40.8838C402.905 43.2553 402.357 46.1705 402.357 49.5831H404.357ZM405.857 41.7556C406.856 39.6876 408.155 38.1965 409.735 37.2218L408.685 35.5197C406.726 36.7282 405.19 38.5371 404.056 40.8858L405.857 41.7556ZM409.737 37.2207C411.358 36.2158 413.127 35.7145 415.063 35.7145V33.7145C412.759 33.7145 410.625 34.3173 408.683 35.5207L409.737 37.2207ZM415.063 35.7145C416.574 35.7145 417.755 35.973 418.654 36.4329L419.565 34.6524C418.306 34.0081 416.789 33.7145 415.063 33.7145V35.7145ZM418.667 36.4391C419.65 36.9251 420.408 37.5187 420.97 38.2072L422.52 36.9433C421.751 36.0007 420.753 35.2392 419.553 34.6461L418.667 36.4391ZM420.98 38.2202C421.612 38.9682 422.071 39.6813 422.377 40.3583L424.199 39.5351C423.802 38.6563 423.233 37.7884 422.509 36.9304L420.98 38.2202ZM423.288 40.9467H423.533V38.9467H423.288V40.9467ZM424.533 39.9467V25.4545H422.533V39.9467H424.533ZM423.533 26.4545H431.532V24.4545H423.533V26.4545ZM430.532 25.4545V64H432.532V25.4545H430.532ZM431.532 63H423.627V65H431.532V63ZM424.627 64V59.37H422.627V64H424.627ZM423.627 58.37H423.288V60.37H423.627V58.37ZM422.383 58.9456C422.052 59.6504 421.575 60.37 420.935 61.1026L422.442 62.418C423.182 61.5697 423.771 60.6957 424.193 59.7945L422.383 58.9456ZM420.934 61.1035C420.362 61.7608 419.596 62.3289 418.608 62.7943L419.461 64.6034C420.657 64.0399 421.66 63.3156 422.442 62.4171L420.934 61.1035ZM418.604 62.7962C417.694 63.2303 416.532 63.4705 415.082 63.4705V65.4705C416.744 65.4705 418.217 65.1963 419.465 64.6015L418.604 62.7962ZM417.623 59.0902C419.107 59.0902 420.426 58.6823 421.517 57.8214L420.278 56.2511C419.588 56.7955 418.723 57.0902 417.623 57.0902V59.0902ZM421.518 57.8203C422.59 56.9722 423.376 55.8118 423.905 54.3928L422.031 53.6946C421.606 54.8353 421.013 55.6698 420.277 56.2522L421.518 57.8203ZM423.902 54.4008C424.445 52.9821 424.702 51.3567 424.702 49.5455H422.702C422.702 51.1722 422.47 52.5456 422.034 53.6865L423.902 54.4008ZM424.702 49.5455C424.702 47.7372 424.452 46.1195 423.923 44.7139L422.051 45.4182C422.476 46.5471 422.702 47.9157 422.702 49.5455H424.702ZM423.923 44.7139C423.393 43.3051 422.602 42.1593 421.524 41.3353L420.31 42.9246C421.038 43.4808 421.627 44.2925 422.051 45.4182L423.923 44.7139ZM421.524 41.3353C420.422 40.4941 419.103 40.0948 417.623 40.0948V42.0948C418.727 42.0948 419.604 42.3856 420.31 42.9246L421.524 41.3353ZM417.623 40.0948C416.114 40.0948 414.776 40.5088 413.671 41.3836L414.912 42.9517C415.614 42.396 416.497 42.0948 417.623 42.0948V40.0948ZM413.671 41.3836C412.6 42.2317 411.818 43.3869 411.301 44.7974L413.179 45.4853C413.591 44.3612 414.177 43.534 414.912 42.9517L413.671 41.3836ZM411.301 44.7974C410.788 46.1974 410.544 47.786 410.544 49.5455H412.544C412.544 47.9673 412.763 46.6198 413.179 45.4853L411.301 44.7974ZM410.544 49.5455C410.544 51.3171 410.788 52.922 411.299 54.3441L413.181 53.668C412.764 52.5053 412.544 51.1365 412.544 49.5455H410.544ZM411.303 54.3551C411.83 55.7699 412.607 56.9324 413.659 57.7918L414.924 56.243C414.195 55.6469 413.604 54.8018 413.177 53.6569L411.303 54.3551ZM413.671 57.8014C414.776 58.6762 416.114 59.0902 417.623 59.0902V57.0902C416.497 57.0902 415.614 56.789 414.912 56.2334L413.671 57.8014ZM445.209 62.7578L444.714 63.6264L444.72 63.6298L445.209 62.7578ZM440.278 57.6009L439.39 58.06L439.391 58.062L440.278 57.6009ZM440.278 41.8477L439.389 41.3905L440.278 41.8477ZM445.153 36.5966L444.641 35.7373L444.639 35.7386L445.153 36.5966ZM457.895 35.6367L457.544 36.5734L457.553 36.5765L457.895 35.6367ZM462.224 38.3658L461.52 39.0765L461.524 39.0801L462.224 38.3658ZM465.122 42.9581L464.185 43.3085L464.186 43.3106L465.122 42.9581ZM466.157 51.5969V52.5969H467.157V51.5969H466.157ZM441.746 51.5969H440.746V52.5969H441.746V51.5969ZM441.746 46.6282V45.6282H440.746V46.6282H441.746ZM458.61 46.6282V47.6282H459.61V46.6282H458.61ZM457.857 43.5604L456.986 44.0512V44.0512L457.857 43.5604ZM455.768 41.4712L455.263 42.3341L455.27 42.3384L455.277 42.3425L455.768 41.4712ZM449.463 41.5465L449.974 42.4061L449.977 42.404L449.463 41.5465ZM447.28 43.7862L448.149 44.2798L448.152 44.2748L447.28 43.7862ZM446.47 46.8917L445.47 46.8807V46.8917H446.47ZM447.261 55.3235L446.369 55.775L446.373 55.7835L447.261 55.3235ZM455.467 58.2031L455.146 57.2561L455.467 58.2031ZM457.368 57.0739L456.678 56.3497V56.3497L457.368 57.0739ZM458.572 55.2294L458.638 54.2316L457.9 54.1828L457.637 54.8747L458.572 55.2294ZM465.988 55.7188L466.966 55.9255L467.205 54.7969L466.054 54.7209L465.988 55.7188ZM463.673 60.3864L462.921 59.7269L462.921 59.7274L463.673 60.3864ZM459.193 63.473L459.565 64.4015L459.568 64.4002L459.193 63.473ZM452.888 63.5646C450.051 63.5646 447.667 62.9906 445.699 61.8858L444.72 63.6298C447.043 64.9341 449.779 65.5646 452.888 65.5646V63.5646ZM445.705 61.8893C443.742 60.7694 442.233 59.1934 441.166 57.1397L439.391 58.062C440.632 60.4501 442.41 62.3121 444.714 63.6264L445.705 61.8893ZM441.167 57.1417C440.1 55.0773 439.547 52.6 439.547 49.6772H437.547C437.547 52.8524 438.148 55.6575 439.39 58.06L441.167 57.1417ZM439.547 49.6772C439.547 46.8343 440.098 44.3863 441.168 42.3048L439.389 41.3905C438.15 43.801 437.547 46.5726 437.547 49.6772H439.547ZM441.168 42.3048C442.24 40.2189 443.737 38.61 445.667 37.4545L444.639 35.7386C442.378 37.0927 440.626 38.9844 439.389 41.3905L441.168 42.3048ZM445.664 37.4559C447.595 36.3068 449.884 35.7145 452.568 35.7145V33.7145C449.581 33.7145 446.927 34.3769 444.641 35.7373L445.664 37.4559ZM452.568 35.7145C454.366 35.7145 456.022 36.0039 457.544 36.5733L458.245 34.7001C456.48 34.0399 454.585 33.7145 452.568 33.7145V35.7145ZM457.553 36.5765C459.076 37.1304 460.395 37.9629 461.52 39.0765L462.927 37.655C461.593 36.3344 460.026 35.3476 458.237 34.6969L457.553 36.5765ZM461.524 39.0801C462.648 40.1819 463.54 41.583 464.185 43.3085L466.059 42.6077C465.324 40.6443 464.283 38.9839 462.923 37.6515L461.524 39.0801ZM464.186 43.3106C464.825 45.0051 465.157 47.0264 465.157 49.3949H467.157C467.157 46.8448 466.8 44.5749 466.058 42.6056L464.186 43.3106ZM465.157 49.3949V51.5969H467.157V49.3949H465.157ZM466.157 50.5969H441.746V52.5969H466.157V50.5969ZM442.746 51.5969V46.6282H440.746V51.5969H442.746ZM441.746 47.6282H458.61V45.6282H441.746V47.6282ZM459.61 46.6282C459.61 45.3244 459.325 44.1287 458.728 43.0695L456.986 44.0512C457.393 44.7738 457.61 45.6232 457.61 46.6282H459.61ZM458.728 43.0695C458.137 42.0195 457.309 41.1916 456.259 40.6L455.277 42.3425C456.009 42.7547 456.574 43.3195 456.986 44.0512L458.728 43.0695ZM456.273 40.6084C455.22 39.9916 454.018 39.6996 452.7 39.6996V41.6996C453.716 41.6996 454.559 41.9219 455.263 42.3341L456.273 40.6084ZM452.7 39.6996C451.322 39.6996 450.061 40.0212 448.948 40.689L449.977 42.404C450.747 41.9426 451.644 41.6996 452.7 41.6996V39.6996ZM448.952 40.687C447.873 41.3287 447.02 42.2031 446.407 43.2976L448.152 44.2748C448.593 43.4873 449.196 42.8685 449.974 42.4061L448.952 40.687ZM446.41 43.2926C445.794 44.3786 445.485 45.5817 445.47 46.8807L447.47 46.9027C447.481 45.918 447.712 45.0509 448.149 44.2798L446.41 43.2926ZM445.47 46.8917V51.6158H447.47V46.8917H445.47ZM445.47 51.6158C445.47 53.1682 445.757 54.5656 446.369 55.775L448.153 54.872C447.711 53.9986 447.47 52.9241 447.47 51.6158H445.47ZM446.373 55.7835C446.997 56.9878 447.888 57.9349 449.039 58.5988L450.038 56.8664C449.231 56.4011 448.604 55.742 448.149 54.8635L446.373 55.7835ZM449.039 58.5988C450.196 59.2663 451.535 59.5795 453.02 59.5795V57.5795C451.82 57.5795 450.838 57.3282 450.038 56.8664L449.039 58.5988ZM453.02 59.5795C454.005 59.5795 454.931 59.4407 455.788 59.1502L455.146 57.2561C454.522 57.4674 453.817 57.5795 453.02 57.5795V59.5795ZM455.788 59.1502C456.655 58.8561 457.418 58.4074 458.057 57.798L456.678 56.3497C456.264 56.7441 455.759 57.0482 455.146 57.2561L455.788 59.1502ZM458.057 57.798C458.7 57.1858 459.182 56.4418 459.507 55.5841L457.637 54.8747C457.411 55.4725 457.089 55.9582 456.678 56.3497L458.057 57.798ZM458.507 56.2272L465.922 56.7166L466.054 54.7209L458.638 54.2316L458.507 56.2272ZM465.009 55.512C464.667 57.131 463.971 58.5297 462.921 59.7269L464.425 61.0459C465.708 59.583 466.555 57.8699 466.966 55.9255L465.009 55.512ZM462.921 59.7274C461.882 60.9128 460.524 61.8566 458.819 62.5459L459.568 64.4002C461.526 63.6088 463.155 62.4948 464.425 61.0454L462.921 59.7274ZM458.822 62.5445C457.143 63.216 455.172 63.5646 452.888 63.5646V65.5646C455.373 65.5646 457.605 65.1855 459.565 64.4015L458.822 62.5445Z" fill="black"/>
</g>
<path d="M136.886 99H135.409L139.682 87.3636H141.136L145.409 99H143.932L140.455 89.2045H140.364L136.886 99ZM137.432 94.4545H143.386V95.7045H137.432V94.4545ZM155.085 99.1818C154.267 99.1818 153.563 98.9886 152.972 98.6023C152.381 98.2159 151.926 97.6837 151.608 97.0057C151.29 96.3277 151.131 95.553 151.131 94.6818C151.131 93.7955 151.294 93.0133 151.619 92.3352C151.949 91.6534 152.407 91.1212 152.994 90.7386C153.585 90.3523 154.275 90.1591 155.062 90.1591C155.676 90.1591 156.229 90.2727 156.722 90.5C157.214 90.7273 157.617 91.0455 157.932 91.4545C158.246 91.8636 158.441 92.3409 158.517 92.8864H157.176C157.074 92.4886 156.847 92.1364 156.494 91.8295C156.146 91.5189 155.676 91.3636 155.085 91.3636C154.563 91.3636 154.104 91.5 153.71 91.7727C153.32 92.0417 153.015 92.4223 152.795 92.9148C152.58 93.4034 152.472 93.9773 152.472 94.6364C152.472 95.3106 152.578 95.8977 152.79 96.3977C153.006 96.8977 153.309 97.286 153.699 97.5625C154.093 97.839 154.555 97.9773 155.085 97.9773C155.434 97.9773 155.75 97.9167 156.034 97.7955C156.318 97.6742 156.559 97.5 156.756 97.2727C156.953 97.0455 157.093 96.7727 157.176 96.4545H158.517C158.441 96.9697 158.254 97.4337 157.955 97.8466C157.659 98.2557 157.267 98.5814 156.778 98.8239C156.294 99.0625 155.729 99.1818 155.085 99.1818ZM164.023 99.1818C163.235 99.1818 162.544 98.9943 161.949 98.6193C161.358 98.2443 160.896 97.7197 160.562 97.0455C160.233 96.3712 160.068 95.5833 160.068 94.6818C160.068 93.7727 160.233 92.9792 160.562 92.3011C160.896 91.6231 161.358 91.0966 161.949 90.7216C162.544 90.3466 163.235 90.1591 164.023 90.1591C164.811 90.1591 165.5 90.3466 166.091 90.7216C166.686 91.0966 167.148 91.6231 167.477 92.3011C167.811 92.9792 167.977 93.7727 167.977 94.6818C167.977 95.5833 167.811 96.3712 167.477 97.0455C167.148 97.7197 166.686 98.2443 166.091 98.6193C165.5 98.9943 164.811 99.1818 164.023 99.1818ZM164.023 97.9773C164.621 97.9773 165.114 97.8239 165.5 97.517C165.886 97.2102 166.172 96.8068 166.358 96.3068C166.544 95.8068 166.636 95.2652 166.636 94.6818C166.636 94.0985 166.544 93.5549 166.358 93.0511C166.172 92.5473 165.886 92.1402 165.5 91.8295C165.114 91.5189 164.621 91.3636 164.023 91.3636C163.424 91.3636 162.932 91.5189 162.545 91.8295C162.159 92.1402 161.873 92.5473 161.688 93.0511C161.502 93.5549 161.409 94.0985 161.409 94.6818C161.409 95.2652 161.502 95.8068 161.688 96.3068C161.873 96.8068 162.159 97.2102 162.545 97.517C162.932 97.8239 163.424 97.9773 164.023 97.9773ZM170.024 99V90.2727H171.32V91.6364H171.433C171.615 91.1705 171.909 90.8087 172.314 90.5511C172.719 90.2898 173.206 90.1591 173.774 90.1591C174.35 90.1591 174.829 90.2898 175.212 90.5511C175.598 90.8087 175.899 91.1705 176.115 91.6364H176.206C176.429 91.1856 176.765 90.8277 177.212 90.5625C177.659 90.2936 178.195 90.1591 178.82 90.1591C179.6 90.1591 180.238 90.4034 180.734 90.892C181.231 91.3769 181.479 92.1326 181.479 93.1591V99H180.138V93.1591C180.138 92.5152 179.962 92.0549 179.609 91.7784C179.257 91.5019 178.842 91.3636 178.365 91.3636C177.751 91.3636 177.276 91.5492 176.939 91.9205C176.602 92.2879 176.433 92.7538 176.433 93.3182V99H175.07V93.0227C175.07 92.5265 174.909 92.1269 174.587 91.8239C174.265 91.517 173.85 91.3636 173.342 91.3636C172.994 91.3636 172.668 91.4564 172.365 91.642C172.066 91.8277 171.823 92.0852 171.638 92.4148C171.456 92.7405 171.365 93.1174 171.365 93.5455V99H170.024ZM183.93 102.273V90.2727H185.226V91.6591H185.385C185.483 91.5076 185.62 91.3144 185.794 91.0795C185.972 90.8409 186.226 90.6288 186.555 90.4432C186.889 90.2538 187.339 90.1591 187.908 90.1591C188.643 90.1591 189.29 90.3428 189.851 90.7102C190.411 91.0777 190.849 91.5985 191.163 92.2727C191.478 92.947 191.635 93.7424 191.635 94.6591C191.635 95.5833 191.478 96.3845 191.163 97.0625C190.849 97.7367 190.413 98.2595 189.857 98.6307C189.3 98.9981 188.658 99.1818 187.93 99.1818C187.37 99.1818 186.921 99.089 186.584 98.9034C186.247 98.714 185.987 98.5 185.805 98.2614C185.624 98.0189 185.483 97.8182 185.385 97.6591H185.271V102.273H183.93ZM185.249 94.6364C185.249 95.2955 185.345 95.8769 185.538 96.3807C185.732 96.8807 186.014 97.2727 186.385 97.5568C186.756 97.8371 187.211 97.9773 187.749 97.9773C188.309 97.9773 188.777 97.8295 189.152 97.5341C189.531 97.2348 189.815 96.8333 190.004 96.3295C190.197 95.822 190.294 95.2576 190.294 94.6364C190.294 94.0227 190.199 93.4697 190.01 92.9773C189.824 92.4811 189.542 92.089 189.163 91.8011C188.788 91.5095 188.317 91.3636 187.749 91.3636C187.203 91.3636 186.745 91.5019 186.374 91.7784C186.002 92.0511 185.722 92.4337 185.533 92.9261C185.343 93.4148 185.249 93.9848 185.249 94.6364ZM193.68 99V90.2727H194.976V91.5909H195.067C195.226 91.1591 195.514 90.8087 195.93 90.5398C196.347 90.2708 196.817 90.1364 197.339 90.1364C197.438 90.1364 197.561 90.1383 197.709 90.142C197.857 90.1458 197.968 90.1515 198.044 90.1591V91.5227C197.999 91.5114 197.894 91.4943 197.732 91.4716C197.572 91.4451 197.404 91.4318 197.226 91.4318C196.802 91.4318 196.423 91.5208 196.089 91.6989C195.76 91.8731 195.499 92.1155 195.305 92.4261C195.116 92.733 195.021 93.0833 195.021 93.4773V99H193.68ZM203.027 99.1818C202.186 99.1818 201.461 98.9962 200.851 98.625C200.245 98.25 199.777 97.7273 199.447 97.0568C199.122 96.3826 198.959 95.5985 198.959 94.7045C198.959 93.8106 199.122 93.0227 199.447 92.3409C199.777 91.6553 200.235 91.1212 200.822 90.7386C201.413 90.3523 202.103 90.1591 202.891 90.1591C203.345 90.1591 203.794 90.2348 204.237 90.3864C204.68 90.5379 205.084 90.7841 205.447 91.125C205.811 91.4621 206.101 91.9091 206.317 92.4659C206.533 93.0227 206.641 93.7083 206.641 94.5227V95.0909H199.913V93.9318H205.277C205.277 93.4394 205.179 93 204.982 92.6136C204.788 92.2273 204.512 91.9223 204.152 91.6989C203.796 91.4754 203.375 91.3636 202.891 91.3636C202.357 91.3636 201.894 91.4962 201.504 91.7614C201.118 92.0227 200.821 92.3636 200.612 92.7841C200.404 93.2045 200.3 93.6553 200.3 94.1364V94.9091C200.3 95.5682 200.413 96.1269 200.641 96.5852C200.872 97.0398 201.192 97.3864 201.601 97.625C202.01 97.8598 202.485 97.9773 203.027 97.9773C203.379 97.9773 203.697 97.928 203.982 97.8295C204.269 97.7273 204.518 97.5758 204.726 97.375C204.934 97.1705 205.095 96.9167 205.209 96.6136L206.504 96.9773C206.368 97.4167 206.139 97.803 205.817 98.1364C205.495 98.4659 205.097 98.7235 204.624 98.9091C204.15 99.0909 203.618 99.1818 203.027 99.1818ZM210.021 93.75V99H208.68V87.3636H210.021V91.6364H210.135C210.339 91.1856 210.646 90.8277 211.055 90.5625C211.468 90.2936 212.018 90.1591 212.703 90.1591C213.298 90.1591 213.819 90.2784 214.266 90.517C214.713 90.7519 215.059 91.1136 215.305 91.6023C215.555 92.0871 215.68 92.7045 215.68 93.4545V99H214.339V93.5455C214.339 92.8523 214.16 92.3163 213.8 91.9375C213.444 91.5549 212.949 91.3636 212.317 91.3636C211.877 91.3636 211.483 91.4564 211.135 91.642C210.79 91.8277 210.518 92.0985 210.317 92.4545C210.12 92.8106 210.021 93.2424 210.021 93.75ZM221.793 99.1818C220.952 99.1818 220.226 98.9962 219.616 98.625C219.01 98.25 218.543 97.7273 218.213 97.0568C217.887 96.3826 217.724 95.5985 217.724 94.7045C217.724 93.8106 217.887 93.0227 218.213 92.3409C218.543 91.6553 219.001 91.1212 219.588 90.7386C220.179 90.3523 220.868 90.1591 221.656 90.1591C222.111 90.1591 222.56 90.2348 223.003 90.3864C223.446 90.5379 223.849 90.7841 224.213 91.125C224.577 91.4621 224.866 91.9091 225.082 92.4659C225.298 93.0227 225.406 93.7083 225.406 94.5227V95.0909H218.679V93.9318H224.043C224.043 93.4394 223.944 93 223.747 92.6136C223.554 92.2273 223.277 91.9223 222.918 91.6989C222.562 91.4754 222.141 91.3636 221.656 91.3636C221.122 91.3636 220.66 91.4962 220.27 91.7614C219.884 92.0227 219.586 92.3636 219.378 92.7841C219.17 93.2045 219.065 93.6553 219.065 94.1364V94.9091C219.065 95.5682 219.179 96.1269 219.406 96.5852C219.637 97.0398 219.957 97.3864 220.366 97.625C220.776 97.8598 221.251 97.9773 221.793 97.9773C222.145 97.9773 222.463 97.928 222.747 97.8295C223.035 97.7273 223.283 97.5758 223.491 97.375C223.7 97.1705 223.861 96.9167 223.974 96.6136L225.27 96.9773C225.134 97.4167 224.904 97.803 224.582 98.1364C224.26 98.4659 223.863 98.7235 223.389 98.9091C222.916 99.0909 222.384 99.1818 221.793 99.1818ZM228.787 93.75V99H227.446V90.2727H228.741V91.6364H228.855C229.06 91.1932 229.37 90.8371 229.787 90.5682C230.204 90.2955 230.741 90.1591 231.401 90.1591C231.991 90.1591 232.509 90.2803 232.952 90.5227C233.395 90.7614 233.74 91.125 233.986 91.6136C234.232 92.0985 234.355 92.7121 234.355 93.4545V99H233.014V93.5455C233.014 92.8598 232.836 92.3258 232.48 91.9432C232.124 91.5568 231.635 91.3636 231.014 91.3636C230.586 91.3636 230.204 91.4564 229.866 91.642C229.533 91.8277 229.27 92.0985 229.077 92.4545C228.884 92.8106 228.787 93.2424 228.787 93.75ZM242.987 92.2273L241.783 92.5682C241.707 92.3674 241.595 92.1723 241.447 91.983C241.304 91.7898 241.107 91.6307 240.857 91.5057C240.607 91.3807 240.286 91.3182 239.896 91.3182C239.362 91.3182 238.917 91.4413 238.561 91.6875C238.209 91.9299 238.033 92.2386 238.033 92.6136C238.033 92.947 238.154 93.2102 238.396 93.4034C238.639 93.5966 239.018 93.7576 239.533 93.8864L240.828 94.2045C241.608 94.3939 242.19 94.6837 242.572 95.0739C242.955 95.4602 243.146 95.9583 243.146 96.5682C243.146 97.0682 243.002 97.5152 242.714 97.9091C242.43 98.303 242.033 98.6136 241.521 98.8409C241.01 99.0682 240.415 99.1818 239.737 99.1818C238.847 99.1818 238.11 98.9886 237.527 98.6023C236.944 98.2159 236.574 97.6515 236.419 96.9091L237.692 96.5909C237.813 97.0606 238.042 97.4129 238.379 97.6477C238.72 97.8826 239.165 98 239.714 98C240.339 98 240.836 97.8674 241.203 97.6023C241.574 97.3333 241.76 97.0114 241.76 96.6364C241.76 96.3333 241.654 96.0795 241.442 95.875C241.23 95.6667 240.904 95.5114 240.464 95.4091L239.01 95.0682C238.211 94.8788 237.624 94.5852 237.249 94.1875C236.877 93.786 236.692 93.2841 236.692 92.6818C236.692 92.1894 236.83 91.7538 237.107 91.375C237.387 90.9962 237.768 90.6989 238.249 90.483C238.733 90.267 239.283 90.1591 239.896 90.1591C240.76 90.1591 241.438 90.3485 241.93 90.7273C242.427 91.1061 242.779 91.6061 242.987 92.2273ZM245.165 99V90.2727H246.506V99H245.165ZM245.847 88.8182C245.585 88.8182 245.36 88.7292 245.17 88.5511C244.985 88.3731 244.892 88.1591 244.892 87.9091C244.892 87.6591 244.985 87.4451 245.17 87.267C245.36 87.089 245.585 87 245.847 87C246.108 87 246.331 87.089 246.517 87.267C246.706 87.4451 246.801 87.6591 246.801 87.9091C246.801 88.1591 246.706 88.3731 246.517 88.5511C246.331 88.7292 246.108 88.8182 245.847 88.8182ZM256.098 90.2727L252.871 99H251.507L248.28 90.2727H249.734L252.143 97.2273H252.234L254.643 90.2727H256.098ZM261.214 99.1818C260.374 99.1818 259.648 98.9962 259.038 98.625C258.432 98.25 257.964 97.7273 257.635 97.0568C257.309 96.3826 257.146 95.5985 257.146 94.7045C257.146 93.8106 257.309 93.0227 257.635 92.3409C257.964 91.6553 258.423 91.1212 259.01 90.7386C259.601 90.3523 260.29 90.1591 261.078 90.1591C261.533 90.1591 261.982 90.2348 262.425 90.3864C262.868 90.5379 263.271 90.7841 263.635 91.125C263.999 91.4621 264.288 91.9091 264.504 92.4659C264.72 93.0227 264.828 93.7083 264.828 94.5227V95.0909H258.101V93.9318H263.464C263.464 93.4394 263.366 93 263.169 92.6136C262.976 92.2273 262.699 91.9223 262.339 91.6989C261.983 91.4754 261.563 91.3636 261.078 91.3636C260.544 91.3636 260.082 91.4962 259.692 91.7614C259.305 92.0227 259.008 92.3636 258.8 92.7841C258.591 93.2045 258.487 93.6553 258.487 94.1364V94.9091C258.487 95.5682 258.601 96.1269 258.828 96.5852C259.059 97.0398 259.379 97.3864 259.788 97.625C260.197 97.8598 260.673 97.9773 261.214 97.9773C261.567 97.9773 261.885 97.928 262.169 97.8295C262.457 97.7273 262.705 97.5758 262.913 97.375C263.122 97.1705 263.283 96.9167 263.396 96.6136L264.692 96.9773C264.555 97.4167 264.326 97.803 264.004 98.1364C263.682 98.4659 263.285 98.7235 262.811 98.9091C262.338 99.0909 261.805 99.1818 261.214 99.1818ZM273.936 99.2045C273.383 99.2045 272.881 99.1004 272.43 98.892C271.98 98.6799 271.622 98.375 271.357 97.9773C271.091 97.5758 270.959 97.0909 270.959 96.5227C270.959 96.0227 271.057 95.6174 271.254 95.3068C271.451 94.9924 271.714 94.7462 272.044 94.5682C272.374 94.3902 272.737 94.2576 273.135 94.1705C273.536 94.0795 273.94 94.0076 274.345 93.9545C274.875 93.8864 275.305 93.8352 275.635 93.8011C275.968 93.7633 276.211 93.7008 276.362 93.6136C276.518 93.5265 276.595 93.375 276.595 93.1591V93.1136C276.595 92.553 276.442 92.1174 276.135 91.8068C275.832 91.4962 275.372 91.3409 274.754 91.3409C274.114 91.3409 273.612 91.4811 273.249 91.7614C272.885 92.0417 272.629 92.3409 272.482 92.6591L271.209 92.2045C271.436 91.6742 271.739 91.2614 272.118 90.9659C272.5 90.6667 272.917 90.4583 273.368 90.3409C273.822 90.2197 274.269 90.1591 274.709 90.1591C274.989 90.1591 275.311 90.1932 275.675 90.2614C276.042 90.3258 276.396 90.4602 276.737 90.6648C277.082 90.8693 277.368 91.178 277.595 91.5909C277.822 92.0038 277.936 92.5568 277.936 93.25V99H276.595V97.8182H276.527C276.436 98.0076 276.285 98.2102 276.072 98.4261C275.86 98.642 275.578 98.8258 275.226 98.9773C274.874 99.1288 274.444 99.2045 273.936 99.2045ZM274.141 98C274.671 98 275.118 97.8958 275.482 97.6875C275.849 97.4792 276.125 97.2102 276.311 96.8807C276.5 96.5511 276.595 96.2045 276.595 95.8409V94.6136C276.538 94.6818 276.413 94.7443 276.22 94.8011C276.031 94.8542 275.811 94.9015 275.561 94.9432C275.315 94.9811 275.074 95.0152 274.839 95.0455C274.608 95.072 274.421 95.0947 274.277 95.1136C273.929 95.1591 273.603 95.233 273.3 95.3352C273 95.4337 272.758 95.5833 272.572 95.7841C272.391 95.9811 272.3 96.25 272.3 96.5909C272.3 97.0568 272.472 97.4091 272.817 97.6477C273.165 97.8826 273.607 98 274.141 98ZM281.724 93.75V99H280.384V90.2727H281.679V91.6364H281.793C281.997 91.1932 282.308 90.8371 282.724 90.5682C283.141 90.2955 283.679 90.1591 284.338 90.1591C284.929 90.1591 285.446 90.2803 285.889 90.5227C286.332 90.7614 286.677 91.125 286.923 91.6136C287.17 92.0985 287.293 92.7121 287.293 93.4545V99H285.952V93.5455C285.952 92.8598 285.774 92.3258 285.418 91.9432C285.062 91.5568 284.573 91.3636 283.952 91.3636C283.524 91.3636 283.141 91.4564 282.804 91.642C282.471 91.8277 282.207 92.0985 282.014 92.4545C281.821 92.8106 281.724 93.2424 281.724 93.75ZM293.038 99.1818C292.311 99.1818 291.669 98.9981 291.112 98.6307C290.555 98.2595 290.12 97.7367 289.805 97.0625C289.491 96.3845 289.334 95.5833 289.334 94.6591C289.334 93.7424 289.491 92.947 289.805 92.2727C290.12 91.5985 290.557 91.0777 291.118 90.7102C291.679 90.3428 292.326 90.1591 293.061 90.1591C293.629 90.1591 294.078 90.2538 294.408 90.4432C294.741 90.6288 294.995 90.8409 295.169 91.0795C295.347 91.3144 295.485 91.5076 295.584 91.6591H295.697V87.3636H297.038V99H295.743V97.6591H295.584C295.485 97.8182 295.345 98.0189 295.163 98.2614C294.982 98.5 294.722 98.714 294.385 98.9034C294.048 99.089 293.599 99.1818 293.038 99.1818ZM293.22 97.9773C293.758 97.9773 294.213 97.8371 294.584 97.5568C294.955 97.2727 295.237 96.8807 295.43 96.3807C295.624 95.8769 295.72 95.2955 295.72 94.6364C295.72 93.9848 295.625 93.4148 295.436 92.9261C295.247 92.4337 294.966 92.0511 294.595 91.7784C294.224 91.5019 293.766 91.3636 293.22 91.3636C292.652 91.3636 292.179 91.5095 291.8 91.8011C291.425 92.089 291.143 92.4811 290.953 92.9773C290.768 93.4697 290.675 94.0227 290.675 94.6364C290.675 95.2576 290.769 95.822 290.959 96.3295C291.152 96.8333 291.436 97.2348 291.811 97.5341C292.19 97.8295 292.66 97.9773 293.22 97.9773ZM306.749 99.2045C306.196 99.2045 305.694 99.1004 305.243 98.892C304.792 98.6799 304.434 98.375 304.169 97.9773C303.904 97.5758 303.771 97.0909 303.771 96.5227C303.771 96.0227 303.87 95.6174 304.067 95.3068C304.264 94.9924 304.527 94.7462 304.857 94.5682C305.186 94.3902 305.55 94.2576 305.947 94.1705C306.349 94.0795 306.752 94.0076 307.158 93.9545C307.688 93.8864 308.118 93.8352 308.447 93.8011C308.781 93.7633 309.023 93.7008 309.175 93.6136C309.33 93.5265 309.408 93.375 309.408 93.1591V93.1136C309.408 92.553 309.254 92.1174 308.947 91.8068C308.644 91.4962 308.184 91.3409 307.567 91.3409C306.927 91.3409 306.425 91.4811 306.061 91.7614C305.697 92.0417 305.442 92.3409 305.294 92.6591L304.021 92.2045C304.249 91.6742 304.552 91.2614 304.93 90.9659C305.313 90.6667 305.73 90.4583 306.18 90.3409C306.635 90.2197 307.082 90.1591 307.521 90.1591C307.802 90.1591 308.124 90.1932 308.487 90.2614C308.855 90.3258 309.209 90.4602 309.55 90.6648C309.894 90.8693 310.18 91.178 310.408 91.5909C310.635 92.0038 310.749 92.5568 310.749 93.25V99H309.408V97.8182H309.339C309.249 98.0076 309.097 98.2102 308.885 98.4261C308.673 98.642 308.391 98.8258 308.038 98.9773C307.686 99.1288 307.256 99.2045 306.749 99.2045ZM306.953 98C307.483 98 307.93 97.8958 308.294 97.6875C308.661 97.4792 308.938 97.2102 309.124 96.8807C309.313 96.5511 309.408 96.2045 309.408 95.8409V94.6136C309.351 94.6818 309.226 94.7443 309.033 94.8011C308.843 94.8542 308.624 94.9015 308.374 94.9432C308.127 94.9811 307.887 95.0152 307.652 95.0455C307.421 95.072 307.233 95.0947 307.089 95.1136C306.741 95.1591 306.415 95.233 306.112 95.3352C305.813 95.4337 305.571 95.5833 305.385 95.7841C305.203 95.9811 305.112 96.25 305.112 96.5909C305.112 97.0568 305.285 97.4091 305.629 97.6477C305.978 97.8826 306.419 98 306.953 98ZM316.741 99.1818C315.923 99.1818 315.219 98.9886 314.628 98.6023C314.037 98.2159 313.582 97.6837 313.264 97.0057C312.946 96.3277 312.787 95.553 312.787 94.6818C312.787 93.7955 312.95 93.0133 313.276 92.3352C313.605 91.6534 314.063 91.1212 314.651 90.7386C315.241 90.3523 315.931 90.1591 316.719 90.1591C317.332 90.1591 317.885 90.2727 318.378 90.5C318.87 90.7273 319.274 91.0455 319.588 91.4545C319.902 91.8636 320.098 92.3409 320.173 92.8864H318.832C318.73 92.4886 318.503 92.1364 318.151 91.8295C317.802 91.5189 317.332 91.3636 316.741 91.3636C316.219 91.3636 315.76 91.5 315.366 91.7727C314.976 92.0417 314.671 92.4223 314.452 92.9148C314.236 93.4034 314.128 93.9773 314.128 94.6364C314.128 95.3106 314.234 95.8977 314.446 96.3977C314.662 96.8977 314.965 97.286 315.355 97.5625C315.749 97.839 316.211 97.9773 316.741 97.9773C317.09 97.9773 317.406 97.9167 317.69 97.7955C317.974 97.6742 318.215 97.5 318.412 97.2727C318.609 97.0455 318.749 96.7727 318.832 96.4545H320.173C320.098 96.9697 319.91 97.4337 319.611 97.8466C319.315 98.2557 318.923 98.5814 318.435 98.8239C317.95 99.0625 317.385 99.1818 316.741 99.1818ZM325.679 99.1818C324.861 99.1818 324.156 98.9886 323.565 98.6023C322.974 98.2159 322.52 97.6837 322.202 97.0057C321.884 96.3277 321.724 95.553 321.724 94.6818C321.724 93.7955 321.887 93.0133 322.213 92.3352C322.543 91.6534 323.001 91.1212 323.588 90.7386C324.179 90.3523 324.868 90.1591 325.656 90.1591C326.27 90.1591 326.823 90.2727 327.315 90.5C327.808 90.7273 328.211 91.0455 328.526 91.4545C328.84 91.8636 329.035 92.3409 329.111 92.8864H327.77C327.668 92.4886 327.44 92.1364 327.088 91.8295C326.74 91.5189 326.27 91.3636 325.679 91.3636C325.156 91.3636 324.698 91.5 324.304 91.7727C323.914 92.0417 323.609 92.4223 323.389 92.9148C323.173 93.4034 323.065 93.9773 323.065 94.6364C323.065 95.3106 323.171 95.8977 323.384 96.3977C323.599 96.8977 323.902 97.286 324.293 97.5625C324.687 97.839 325.149 97.9773 325.679 97.9773C326.027 97.9773 326.344 97.9167 326.628 97.7955C326.912 97.6742 327.152 97.5 327.349 97.2727C327.546 97.0455 327.687 96.7727 327.77 96.4545H329.111C329.035 96.9697 328.848 97.4337 328.548 97.8466C328.253 98.2557 327.861 98.5814 327.372 98.8239C326.887 99.0625 326.323 99.1818 325.679 99.1818ZM336.571 95.4318V90.2727H337.912V99H336.571V97.5227H336.48C336.276 97.9659 335.957 98.3428 335.526 98.6534C335.094 98.9602 334.548 99.1136 333.889 99.1136C333.344 99.1136 332.859 98.9943 332.435 98.7557C332.01 98.5133 331.677 98.1496 331.435 97.6648C331.192 97.1761 331.071 96.5606 331.071 95.8182V90.2727H332.412V95.7273C332.412 96.3636 332.59 96.8712 332.946 97.25C333.306 97.6288 333.764 97.8182 334.321 97.8182C334.654 97.8182 334.993 97.733 335.338 97.5625C335.687 97.392 335.978 97.1307 336.213 96.7784C336.452 96.4261 336.571 95.9773 336.571 95.4318ZM340.368 99V90.2727H341.663V91.5909H341.754C341.913 91.1591 342.201 90.8087 342.618 90.5398C343.035 90.2708 343.504 90.1364 344.027 90.1364C344.125 90.1364 344.249 90.1383 344.396 90.142C344.544 90.1458 344.656 90.1515 344.732 90.1591V91.5227C344.686 91.5114 344.582 91.4943 344.419 91.4716C344.26 91.4451 344.091 91.4318 343.913 91.4318C343.489 91.4318 343.11 91.5208 342.777 91.6989C342.447 91.8731 342.186 92.1155 341.993 92.4261C341.804 92.733 341.709 93.0833 341.709 93.4773V99H340.368ZM348.889 99.2045C348.336 99.2045 347.834 99.1004 347.384 98.892C346.933 98.6799 346.575 98.375 346.31 97.9773C346.045 97.5758 345.912 97.0909 345.912 96.5227C345.912 96.0227 346.01 95.6174 346.207 95.3068C346.404 94.9924 346.668 94.7462 346.997 94.5682C347.327 94.3902 347.69 94.2576 348.088 94.1705C348.49 94.0795 348.893 94.0076 349.298 93.9545C349.829 93.8864 350.259 93.8352 350.588 93.8011C350.921 93.7633 351.164 93.7008 351.315 93.6136C351.471 93.5265 351.548 93.375 351.548 93.1591V93.1136C351.548 92.553 351.395 92.1174 351.088 91.8068C350.785 91.4962 350.325 91.3409 349.707 91.3409C349.067 91.3409 348.565 91.4811 348.202 91.7614C347.838 92.0417 347.582 92.3409 347.435 92.6591L346.162 92.2045C346.389 91.6742 346.692 91.2614 347.071 90.9659C347.454 90.6667 347.87 90.4583 348.321 90.3409C348.776 90.2197 349.223 90.1591 349.662 90.1591C349.942 90.1591 350.264 90.1932 350.628 90.2614C350.995 90.3258 351.349 90.4602 351.69 90.6648C352.035 90.8693 352.321 91.178 352.548 91.5909C352.776 92.0038 352.889 92.5568 352.889 93.25V99H351.548V97.8182H351.48C351.389 98.0076 351.238 98.2102 351.026 98.4261C350.813 98.642 350.531 98.8258 350.179 98.9773C349.827 99.1288 349.397 99.2045 348.889 99.2045ZM349.094 98C349.624 98 350.071 97.8958 350.435 97.6875C350.802 97.4792 351.079 97.2102 351.264 96.8807C351.454 96.5511 351.548 96.2045 351.548 95.8409V94.6136C351.491 94.6818 351.366 94.7443 351.173 94.8011C350.984 94.8542 350.764 94.9015 350.514 94.9432C350.268 94.9811 350.027 95.0152 349.793 95.0455C349.562 95.072 349.374 95.0947 349.23 95.1136C348.882 95.1591 348.556 95.233 348.253 95.3352C347.954 95.4337 347.711 95.5833 347.526 95.7841C347.344 95.9811 347.253 96.25 347.253 96.5909C347.253 97.0568 347.425 97.4091 347.77 97.6477C348.118 97.8826 348.56 98 349.094 98ZM359.132 90.2727V91.4091H354.609V90.2727H359.132ZM355.928 88.1818H357.268V96.5C357.268 96.8788 357.323 97.1629 357.433 97.3523C357.547 97.5379 357.691 97.6629 357.865 97.7273C358.043 97.7879 358.231 97.8182 358.428 97.8182C358.575 97.8182 358.696 97.8106 358.791 97.7955C358.886 97.7765 358.962 97.7614 359.018 97.75L359.291 98.9545C359.2 98.9886 359.073 99.0227 358.911 99.0568C358.748 99.0947 358.541 99.1136 358.291 99.1136C357.912 99.1136 357.541 99.0322 357.178 98.8693C356.818 98.7064 356.518 98.4583 356.28 98.125C356.045 97.7917 355.928 97.3712 355.928 96.8636V88.1818ZM364.714 99.1818C363.874 99.1818 363.148 98.9962 362.538 98.625C361.932 98.25 361.464 97.7273 361.135 97.0568C360.809 96.3826 360.646 95.5985 360.646 94.7045C360.646 93.8106 360.809 93.0227 361.135 92.3409C361.464 91.6553 361.923 91.1212 362.51 90.7386C363.101 90.3523 363.79 90.1591 364.578 90.1591C365.033 90.1591 365.482 90.2348 365.925 90.3864C366.368 90.5379 366.771 90.7841 367.135 91.125C367.499 91.4621 367.788 91.9091 368.004 92.4659C368.22 93.0227 368.328 93.7083 368.328 94.5227V95.0909H361.601V93.9318H366.964C366.964 93.4394 366.866 93 366.669 92.6136C366.476 92.2273 366.199 91.9223 365.839 91.6989C365.483 91.4754 365.063 91.3636 364.578 91.3636C364.044 91.3636 363.582 91.4962 363.192 91.7614C362.805 92.0227 362.508 92.3636 362.3 92.7841C362.091 93.2045 361.987 93.6553 361.987 94.1364V94.9091C361.987 95.5682 362.101 96.1269 362.328 96.5852C362.559 97.0398 362.879 97.3864 363.288 97.625C363.697 97.8598 364.173 97.9773 364.714 97.9773C365.067 97.9773 365.385 97.928 365.669 97.8295C365.957 97.7273 366.205 97.5758 366.413 97.375C366.622 97.1705 366.783 96.9167 366.896 96.6136L368.192 96.9773C368.055 97.4167 367.826 97.803 367.504 98.1364C367.182 98.4659 366.785 98.7235 366.311 98.9091C365.838 99.0909 365.305 99.1818 364.714 99.1818ZM375.05 99V87.3636H376.459V92.5455H382.663V87.3636H384.072V99H382.663V93.7955H376.459V99H375.05ZM386.257 88.6136V87.3636H394.984V88.6136H391.325V99H389.916V88.6136H386.257ZM397.159 87.3636H398.841L402.795 97.0227H402.932L406.886 87.3636H408.568V99H407.25V90.1591H407.136L403.5 99H402.227L398.591 90.1591H398.477V99H397.159V87.3636ZM411.393 99V87.3636H412.803V97.75H418.212V99H411.393ZM428.234 102.455C427.587 102.455 427.03 102.371 426.564 102.205C426.098 102.042 425.71 101.826 425.399 101.557C425.092 101.292 424.848 101.008 424.666 100.705L425.734 99.9545C425.856 100.114 426.009 100.295 426.195 100.5C426.38 100.708 426.634 100.888 426.956 101.04C427.282 101.195 427.708 101.273 428.234 101.273C428.939 101.273 429.52 101.102 429.979 100.761C430.437 100.42 430.666 99.8864 430.666 99.1591V97.3864H430.553C430.454 97.5455 430.314 97.7424 430.132 97.9773C429.954 98.2083 429.696 98.4148 429.359 98.5966C429.026 98.7746 428.575 98.8636 428.007 98.8636C427.303 98.8636 426.67 98.697 426.109 98.3636C425.553 98.0303 425.111 97.5455 424.786 96.9091C424.464 96.2727 424.303 95.5 424.303 94.5909C424.303 93.697 424.46 92.9186 424.774 92.2557C425.089 91.589 425.526 91.0739 426.087 90.7102C426.647 90.3428 427.295 90.1591 428.03 90.1591C428.598 90.1591 429.049 90.2538 429.382 90.4432C429.719 90.6288 429.977 90.8409 430.155 91.0795C430.337 91.3144 430.477 91.5076 430.575 91.6591H430.712V90.2727H432.007V99.25C432.007 100 431.837 100.61 431.496 101.08C431.159 101.553 430.704 101.9 430.132 102.119C429.564 102.343 428.931 102.455 428.234 102.455ZM428.189 97.6591C428.727 97.6591 429.181 97.536 429.553 97.2898C429.924 97.0436 430.206 96.6894 430.399 96.2273C430.592 95.7652 430.689 95.2121 430.689 94.5682C430.689 93.9394 430.594 93.3845 430.405 92.9034C430.215 92.4223 429.935 92.0455 429.564 91.7727C429.193 91.5 428.734 91.3636 428.189 91.3636C427.621 91.3636 427.147 91.5076 426.768 91.7955C426.393 92.0833 426.111 92.4697 425.922 92.9545C425.736 93.4394 425.643 93.9773 425.643 94.5682C425.643 95.1742 425.738 95.7102 425.928 96.1761C426.121 96.6383 426.405 97.0019 426.78 97.267C427.159 97.5284 427.628 97.6591 428.189 97.6591ZM439.962 95.4318V90.2727H441.303V99H439.962V97.5227H439.871C439.666 97.9659 439.348 98.3428 438.916 98.6534C438.484 98.9602 437.939 99.1136 437.28 99.1136C436.734 99.1136 436.25 98.9943 435.825 98.7557C435.401 98.5133 435.068 98.1496 434.825 97.6648C434.583 97.1761 434.462 96.5606 434.462 95.8182V90.2727H435.803V95.7273C435.803 96.3636 435.981 96.8712 436.337 97.25C436.696 97.6288 437.155 97.8182 437.712 97.8182C438.045 97.8182 438.384 97.733 438.729 97.5625C439.077 97.392 439.369 97.1307 439.604 96.7784C439.842 96.4261 439.962 95.9773 439.962 95.4318ZM443.759 99V90.2727H445.099V99H443.759ZM444.44 88.8182C444.179 88.8182 443.954 88.7292 443.764 88.5511C443.579 88.3731 443.486 88.1591 443.486 87.9091C443.486 87.6591 443.579 87.4451 443.764 87.267C443.954 87.089 444.179 87 444.44 87C444.702 87 444.925 87.089 445.111 87.267C445.3 87.4451 445.395 87.6591 445.395 87.9091C445.395 88.1591 445.3 88.3731 445.111 88.5511C444.925 88.7292 444.702 88.8182 444.44 88.8182ZM450.851 99.1818C450.124 99.1818 449.482 98.9981 448.925 98.6307C448.368 98.2595 447.932 97.7367 447.618 97.0625C447.304 96.3845 447.146 95.5833 447.146 94.6591C447.146 93.7424 447.304 92.947 447.618 92.2727C447.932 91.5985 448.37 91.0777 448.93 90.7102C449.491 90.3428 450.139 90.1591 450.874 90.1591C451.442 90.1591 451.891 90.2538 452.22 90.4432C452.554 90.6288 452.807 90.8409 452.982 91.0795C453.16 91.3144 453.298 91.5076 453.396 91.6591H453.51V87.3636H454.851V99H453.555V97.6591H453.396C453.298 97.8182 453.158 98.0189 452.976 98.2614C452.794 98.5 452.535 98.714 452.197 98.9034C451.86 99.089 451.411 99.1818 450.851 99.1818ZM451.033 97.9773C451.571 97.9773 452.025 97.8371 452.396 97.5568C452.768 97.2727 453.05 96.8807 453.243 96.3807C453.436 95.8769 453.533 95.2955 453.533 94.6364C453.533 93.9848 453.438 93.4148 453.249 92.9261C453.059 92.4337 452.779 92.0511 452.408 91.7784C452.036 91.5019 451.578 91.3636 451.033 91.3636C450.464 91.3636 449.991 91.5095 449.612 91.8011C449.237 92.089 448.955 92.4811 448.766 92.9773C448.58 93.4697 448.487 94.0227 448.487 94.6364C448.487 95.2576 448.582 95.822 448.771 96.3295C448.964 96.8333 449.249 97.2348 449.624 97.5341C450.002 97.8295 450.472 97.9773 451.033 97.9773ZM461.152 99.1818C460.311 99.1818 459.586 98.9962 458.976 98.625C458.37 98.25 457.902 97.7273 457.572 97.0568C457.247 96.3826 457.084 95.5985 457.084 94.7045C457.084 93.8106 457.247 93.0227 457.572 92.3409C457.902 91.6553 458.36 91.1212 458.947 90.7386C459.538 90.3523 460.228 90.1591 461.016 90.1591C461.47 90.1591 461.919 90.2348 462.362 90.3864C462.805 90.5379 463.209 90.7841 463.572 91.125C463.936 91.4621 464.226 91.9091 464.442 92.4659C464.658 93.0227 464.766 93.7083 464.766 94.5227V95.0909H458.038V93.9318H463.402C463.402 93.4394 463.304 93 463.107 92.6136C462.913 92.2273 462.637 91.9223 462.277 91.6989C461.921 91.4754 461.5 91.3636 461.016 91.3636C460.482 91.3636 460.019 91.4962 459.629 91.7614C459.243 92.0227 458.946 92.3636 458.737 92.7841C458.529 93.2045 458.425 93.6553 458.425 94.1364V94.9091C458.425 95.5682 458.538 96.1269 458.766 96.5852C458.997 97.0398 459.317 97.3864 459.726 97.625C460.135 97.8598 460.61 97.9773 461.152 97.9773C461.504 97.9773 461.822 97.928 462.107 97.8295C462.394 97.7273 462.643 97.5758 462.851 97.375C463.059 97.1705 463.22 96.9167 463.334 96.6136L464.629 96.9773C464.493 97.4167 464.264 97.803 463.942 98.1364C463.62 98.4659 463.222 98.7235 462.749 98.9091C462.275 99.0909 461.743 99.1818 461.152 99.1818Z" fill="#686565"/>
<defs>
<filter id="filter0_d_3_66" x="134.35" y="23.2525" width="335.807" height="49.3121" filterUnits="userSpaceOnUse" color-interpolation-filters="sRGB">
<feFlood flood-opacity="0" result="BackgroundImageFix"/>
<feColorMatrix in="SourceAlpha" type="matrix" values="0 0 0 0 0 0 0 0 0 0 0 0 0 0 0 0 0 0 127 0" result="hardAlpha"/>
<feOffset dy="4"/>
<feGaussianBlur stdDeviation="2"/>
<feComposite in2="hardAlpha" operator="out"/>
<feColorMatrix type="matrix" values="0 0 0 0 0 0 0 0 0 0 0 0 0 0 0 0 0 0 0.25 0"/>
<feBlend mode="normal" in2="BackgroundImageFix" result="effect1_dropShadow_3_66"/>
<feBlend mode="normal" in="SourceGraphic" in2="effect1_dropShadow_3_66" result="shape"/>
</filter>
</defs>
</svg>
