<svg width="471" height="120" viewBox="0 0 471 120" fill="none" xmlns="http://www.w3.org/2000/svg">
<path d="M10.179 6.96001L17.316 101.16C17.433 102.6 18.369 103.8 19.656 104.16L57.447 116.4C58.149 116.64 58.851 116.64 59.553 116.4L97.344 104.16C98.631 103.68 99.567 102.48 99.684 101.16L106.821 6.96001C106.938 4.92001 105.417 3.24001 103.428 3.24001H13.572C11.583 3.24001 9.945 4.92001 10.179 6.96001Z" fill="#FC490B"/>
<path d="M88.452 36.24H41.652L43.056 49.56H87.399L84.474 87.72L58.5 96.12L32.526 87.72L31.005 67.8H44.577V77.52L58.851 81.48L73.008 77.52L74.178 62.04H30.537L27.612 24H89.388L88.452 36.24Z" fill="white"/>
<g filter="url(#filter0_d_3_66)">
<path d="M138.35 64V25.4545H146.5V41.3583H163.043V25.4545H171.174V64H163.043V48.0774H146.5V64H138.35ZM178.015 32.1736V25.4545H209.672V32.1736H197.871V64H189.816V32.1736H178.015ZM216.475 25.4545H226.526L237.141 51.3523H237.593L248.208 25.4545H258.258V64H250.353V38.9116H250.033L240.058 63.8118H234.675L224.7 38.8175H224.38V64H216.475V25.4545ZM266.563 64V25.4545H274.712V57.2809H291.237V64H266.563ZM337.639 37.9141C337.376 36.9981 337.006 36.1888 336.529 35.4861C336.052 34.771 335.469 34.1687 334.779 33.6793C334.101 33.1774 333.323 32.7947 332.445 32.5312C331.579 32.2678 330.619 32.136 329.565 32.136C327.595 32.136 325.864 32.6254 324.371 33.604C322.89 34.5827 321.736 36.0069 320.907 37.8764C320.079 39.7334 319.665 42.0045 319.665 44.6896C319.665 47.3748 320.073 49.6584 320.889 51.5405C321.704 53.4226 322.859 54.8593 324.352 55.8505C325.845 56.8292 327.608 57.3185 329.64 57.3185C331.485 57.3185 333.06 56.9923 334.365 56.3398C335.682 55.6748 336.686 54.7401 337.376 53.5355C338.079 52.331 338.43 50.9068 338.43 49.2631L340.086 49.5078H330.149V43.3722H346.278V48.228C346.278 51.6158 345.563 54.5268 344.133 56.9609C342.702 59.3826 340.732 61.2521 338.223 62.5696C335.713 63.8745 332.84 64.527 329.603 64.527C325.989 64.527 322.815 63.7302 320.079 62.1367C317.344 60.5307 315.211 58.2533 313.68 55.3047C312.162 52.3435 311.403 48.8303 311.403 44.7649C311.403 41.6406 311.855 38.8551 312.758 36.4084C313.674 33.9491 314.954 31.8662 316.597 30.1598C318.241 28.4534 320.155 27.1547 322.338 26.2638C324.521 25.373 326.886 24.9276 329.433 24.9276C331.617 24.9276 333.649 25.2475 335.531 25.8874C337.414 26.5148 339.082 27.4057 340.538 28.56C342.006 29.7144 343.204 31.0883 344.133 32.6818C345.061 34.2628 345.657 36.0069 345.921 37.9141H337.639ZM372.378 51.6911V35.0909H380.396V64H372.698V58.7489H372.397C371.744 60.4428 370.659 61.8042 369.141 62.8331C367.635 63.862 365.797 64.3764 363.626 64.3764C361.694 64.3764 359.994 63.9373 358.526 63.0589C357.058 62.1806 355.909 60.9322 355.081 59.3136C354.266 57.695 353.852 55.7564 353.839 53.4979V35.0909H361.857V52.0675C361.869 53.7739 362.327 55.1228 363.231 56.114C364.134 57.1052 365.345 57.6009 366.863 57.6009C367.829 57.6009 368.733 57.3813 369.574 56.9421C370.414 56.4904 371.092 55.8254 371.606 54.9471C372.133 54.0688 372.39 52.9834 372.378 51.6911ZM388.399 64V35.0909H396.417V64H388.399ZM392.427 31.3643C391.235 31.3643 390.212 30.9691 389.359 30.1786C388.518 29.3756 388.098 28.4157 388.098 27.299C388.098 26.1948 388.518 25.2475 389.359 24.457C390.212 23.654 391.235 23.2525 392.427 23.2525C393.619 23.2525 394.635 23.654 395.476 24.457C396.329 25.2475 396.755 26.1948 396.755 27.299C396.755 28.4157 396.329 29.3756 395.476 30.1786C394.635 30.9691 393.619 31.3643 392.427 31.3643ZM415.082 64.4705C412.886 64.4705 410.897 63.9059 409.116 62.7766C407.347 61.6348 405.941 59.9598 404.9 57.7514C403.871 55.5305 403.357 52.8078 403.357 49.5831C403.357 46.2706 403.89 43.5165 404.956 41.3207C406.023 39.1123 407.441 37.4624 409.21 36.3707C410.992 35.2666 412.943 34.7145 415.063 34.7145C416.682 34.7145 418.031 34.9905 419.11 35.5426C420.201 36.0821 421.08 36.7597 421.745 37.5753C422.422 38.3783 422.937 39.1688 423.288 39.9467H423.533V25.4545H431.532V64H423.627V59.37H423.288C422.912 60.1731 422.378 60.9698 421.688 61.7603C421.011 62.5382 420.126 63.1844 419.034 63.6989C417.955 64.2133 416.638 64.4705 415.082 64.4705ZM417.623 58.0902C418.915 58.0902 420.007 57.7389 420.898 57.0362C421.801 56.321 422.491 55.3235 422.968 54.0437C423.457 52.7638 423.702 51.2644 423.702 49.5455C423.702 47.8265 423.464 46.3333 422.987 45.066C422.51 43.7988 421.82 42.8201 420.917 42.13C420.013 41.4399 418.915 41.0948 417.623 41.0948C416.305 41.0948 415.195 41.4524 414.292 42.1676C413.388 42.8828 412.704 43.8741 412.24 45.1413C411.776 46.4086 411.544 47.8767 411.544 49.5455C411.544 51.2268 411.776 52.7137 412.24 54.006C412.717 55.2859 413.401 56.2897 414.292 57.0174C415.195 57.7326 416.305 58.0902 417.623 58.0902ZM452.888 64.5646C449.915 64.5646 447.355 63.9624 445.209 62.7578C443.076 61.5407 441.433 59.8217 440.278 57.6009C439.124 55.3674 438.547 52.7262 438.547 49.6772C438.547 46.7035 439.124 44.0936 440.278 41.8477C441.433 39.6017 443.058 37.8513 445.153 36.5966C447.261 35.3419 449.733 34.7145 452.568 34.7145C454.476 34.7145 456.251 35.0219 457.895 35.6367C459.551 36.239 460.994 37.1487 462.224 38.3658C463.466 39.5829 464.432 41.1136 465.122 42.9581C465.812 44.79 466.157 46.9356 466.157 49.3949V51.5969H441.746V46.6282H458.61C458.61 45.4738 458.359 44.4512 457.857 43.5604C457.355 42.6695 456.659 41.9731 455.768 41.4712C454.89 40.9568 453.867 40.6996 452.7 40.6996C451.483 40.6996 450.404 40.9819 449.463 41.5465C448.534 42.0986 447.807 42.8452 447.28 43.7862C446.753 44.7147 446.483 45.7499 446.47 46.8917V51.6158C446.47 53.0462 446.734 54.2821 447.261 55.3235C447.8 56.3649 448.56 57.168 449.538 57.7326C450.517 58.2972 451.678 58.5795 453.02 58.5795C453.911 58.5795 454.727 58.4541 455.467 58.2031C456.207 57.9522 456.841 57.5758 457.368 57.0739C457.895 56.572 458.296 55.9571 458.572 55.2294L465.988 55.7188C465.611 57.5005 464.84 59.0563 463.673 60.3864C462.518 61.7038 461.025 62.7327 459.193 63.473C457.374 64.2008 455.272 64.5646 452.888 64.5646Z" fill="black"/>
<path d="M138.35 64H137.35V65H138.35V64ZM138.35 25.4545V24.4545H137.35V25.4545H138.35ZM146.5 25.4545H147.5V24.4545H146.5V25.4545ZM146.5 41.3583H145.5V42.3583H146.5V41.3583ZM163.043 41.3583V42.3583H164.043V41.3583H163.043ZM163.043 25.4545V24.4545H162.043V25.4545H163.043ZM171.174 25.4545H172.174V24.4545H171.174V25.4545ZM171.174 64V65H172.174V64H171.174ZM163.043 64H162.043V65H163.043V64ZM163.043 48.0774H164.043V47.0774H163.043V48.0774ZM146.5 48.0774V47.0774H145.5V48.0774H146.5ZM146.5 64V65H147.5V64H146.5ZM139.35 64V25.4545H137.35V64H139.35ZM138.35 26.4545H146.5V24.4545H138.35V26.4545ZM145.5 25.4545V41.3583H147.5V25.4545H145.5ZM146.5 42.3583H163.043V40.3583H146.5V42.3583ZM164.043 41.3583V25.4545H162.043V41.3583H164.043ZM163.043 26.4545H171.174V24.4545H163.043V26.4545ZM170.174 25.4545V64H172.174V25.4545H170.174ZM171.174 63H163.043V65H171.174V63ZM164.043 64V48.0774H162.043V64H164.043ZM163.043 47.0774H146.5V49.0774H163.043V47.0774ZM145.5 48.0774V64H147.5V48.0774H145.5ZM146.5 63H138.35V65H146.5V63ZM178.015 32.1736H177.015V33.1736H178.015V32.1736ZM178.015 25.4545V24.4545H177.015V25.4545H178.015ZM209.672 25.4545H210.672V24.4545H209.672V25.4545ZM209.672 32.1736V33.1736H210.672V32.1736H209.672ZM197.871 32.1736V31.1736H196.871V32.1736H197.871ZM197.871 64V65H198.871V64H197.871ZM189.816 64H188.816V65H189.816V64ZM189.816 32.1736H190.816V31.1736H189.816V32.1736ZM179.015 32.1736V25.4545H177.015V32.1736H179.015ZM178.015 26.4545H209.672V24.4545H178.015V26.4545ZM208.672 25.4545V32.1736H210.672V25.4545H208.672ZM209.672 31.1736H197.871V33.1736H209.672V31.1736ZM196.871 32.1736V64H198.871V32.1736H196.871ZM197.871 63H189.816V65H197.871V63ZM190.816 64V32.1736H188.816V64H190.816ZM189.816 31.1736H178.015V33.1736H189.816V31.1736ZM216.475 25.4545V24.4545H215.475V25.4545H216.475ZM226.526 25.4545L227.451 25.0753L227.197 24.4545H226.526V25.4545ZM237.141 51.3523L236.216 51.7315L236.47 52.3523H237.141V51.3523ZM237.593 51.3523V52.3523H238.264L238.518 51.7315L237.593 51.3523ZM248.208 25.4545V24.4545H247.537L247.282 25.0753L248.208 25.4545ZM258.258 25.4545H259.258V24.4545H258.258V25.4545ZM258.258 64V65H259.258V64H258.258ZM250.353 64H249.353V65H250.353V64ZM250.353 38.9116H251.353V37.9116H250.353V38.9116ZM250.033 38.9116V37.9116H249.357L249.105 38.5397L250.033 38.9116ZM240.058 63.8118V64.8118H240.735L240.986 64.1837L240.058 63.8118ZM234.675 63.8118L233.747 64.1825L233.998 64.8118H234.675V63.8118ZM224.7 38.8175L225.629 38.4468L225.378 37.8175H224.7V38.8175ZM224.38 38.8175V37.8175H223.38V38.8175H224.38ZM224.38 64V65H225.38V64H224.38ZM216.475 64H215.475V65H216.475V64ZM216.475 26.4545H226.526V24.4545H216.475V26.4545ZM225.601 25.8338L236.216 51.7315L238.066 50.973L227.451 25.0753L225.601 25.8338ZM237.141 52.3523H237.593V50.3523H237.141V52.3523ZM238.518 51.7315L249.133 25.8338L247.282 25.0753L236.667 50.973L238.518 51.7315ZM248.208 26.4545H258.258V24.4545H248.208V26.4545ZM257.258 25.4545V64H259.258V25.4545H257.258ZM258.258 63H250.353V65H258.258V63ZM251.353 64V38.9116H249.353V64H251.353ZM250.353 37.9116H250.033V39.9116H250.353V37.9116ZM249.105 38.5397L239.13 63.4399L240.986 64.1837L250.962 39.2834L249.105 38.5397ZM240.058 62.8118H234.675V64.8118H240.058V62.8118ZM235.604 63.4411L225.629 38.4468L223.771 39.1881L233.747 64.1825L235.604 63.4411ZM224.7 37.8175H224.38V39.8175H224.7V37.8175ZM223.38 38.8175V64H225.38V38.8175H223.38ZM224.38 63H216.475V65H224.38V63ZM217.475 64V25.4545H215.475V64H217.475ZM266.563 64H265.563V65H266.563V64ZM266.563 25.4545V24.4545H265.563V25.4545H266.563ZM274.712 25.4545H275.712V24.4545H274.712V25.4545ZM274.712 57.2809H273.712V58.2809H274.712V57.2809ZM291.237 57.2809H292.237V56.2809H291.237V57.2809ZM291.237 64V65H292.237V64H291.237ZM267.563 64V25.4545H265.563V64H267.563ZM266.563 26.4545H274.712V24.4545H266.563V26.4545ZM273.712 25.4545V57.2809H275.712V25.4545H273.712ZM274.712 58.2809H291.237V56.2809H274.712V58.2809ZM290.237 57.2809V64H292.237V57.2809H290.237ZM291.237 63H266.563V65H291.237V63ZM337.639 37.9141L336.678 38.1905L336.886 38.9141H337.639V37.9141ZM336.529 35.4861L335.697 36.0409L335.701 36.0476L336.529 35.4861ZM334.779 33.6793L334.183 34.4829L334.192 34.4891L334.2 34.4951L334.779 33.6793ZM332.445 32.5312L332.154 33.4879L332.157 33.4891L332.445 32.5312ZM324.371 33.604L323.822 32.7677L323.819 32.7698L324.371 33.604ZM320.907 37.8764L321.821 38.2837L321.822 38.2814L320.907 37.8764ZM324.352 55.8505L323.799 56.6836L323.804 56.6868L324.352 55.8505ZM334.365 56.3398L334.812 57.2343L334.815 57.2326L334.365 56.3398ZM337.376 53.5355L336.512 53.0316L336.508 53.0384L337.376 53.5355ZM338.43 49.2631L338.576 48.2739L337.43 48.1046V49.2631H338.43ZM340.086 49.5078V50.5078L340.232 48.5185L340.086 49.5078ZM330.149 49.5078H329.149V50.5078H330.149V49.5078ZM330.149 43.3722V42.3722H329.149V43.3722H330.149ZM346.278 43.3722H347.278V42.3722H346.278V43.3722ZM344.133 56.9609L344.994 57.4695L344.995 57.4676L344.133 56.9609ZM338.223 62.5696L338.684 63.4568L338.688 63.455L338.223 62.5696ZM320.079 62.1367L319.573 62.9991L319.576 63.0008L320.079 62.1367ZM313.68 55.3047L312.79 55.7609L312.793 55.7654L313.68 55.3047ZM312.758 36.4084L311.821 36.0594L311.82 36.062L312.758 36.4084ZM316.597 30.1598L317.318 30.8535H317.318L316.597 30.1598ZM322.338 26.2638L321.96 25.338L322.338 26.2638ZM335.531 25.8874L335.21 26.8342L335.215 26.8361L335.531 25.8874ZM340.538 28.56L339.916 29.3435L339.92 29.3461L340.538 28.56ZM344.133 32.6818L343.269 33.1853L343.27 33.1882L344.133 32.6818ZM345.921 37.9141V38.9141H347.068L346.911 37.7772L345.921 37.9141ZM338.6 37.6376C338.311 36.6325 337.899 35.7246 337.356 34.9246L335.701 36.0476C336.112 36.653 336.441 37.3638 336.678 38.1905L338.6 37.6376ZM337.361 34.9314C336.817 34.1161 336.149 33.4249 335.357 32.8636L334.2 34.4951C334.789 34.9125 335.287 35.4258 335.697 36.0408L337.361 34.9314ZM335.374 32.8758C334.596 32.2993 333.712 31.8672 332.732 31.5734L332.157 33.4891C332.935 33.7222 333.607 34.0556 334.183 34.4829L335.374 32.8758ZM332.736 31.5746C331.762 31.2781 330.702 31.136 329.565 31.136V33.136C330.536 33.136 331.396 33.2574 332.154 33.4879L332.736 31.5746ZM329.565 31.136C327.421 31.136 325.495 31.6713 323.822 32.7677L324.919 34.4404C326.232 33.5794 327.769 33.136 329.565 33.136V31.136ZM323.819 32.7698C322.156 33.8692 320.887 35.4543 319.993 37.4714L321.822 38.2814C322.585 36.5595 323.624 35.2962 324.922 34.4383L323.819 32.7698ZM319.994 37.4691C319.094 39.4884 318.665 41.907 318.665 44.6896H320.665C320.665 42.102 321.065 39.9785 321.821 38.2837L319.994 37.4691ZM318.665 44.6896C318.665 47.4712 319.087 49.8981 319.971 51.9381L321.806 51.1429C321.059 49.4186 320.665 47.2783 320.665 44.6896H318.665ZM319.971 51.9381C320.852 53.9712 322.122 55.5707 323.799 56.6836L324.905 55.0174C323.595 54.1479 322.556 52.8739 321.806 51.1429L319.971 51.9381ZM323.804 56.6868C325.481 57.7866 327.441 58.3185 329.64 58.3185V56.3185C327.775 56.3185 326.208 55.8718 324.9 55.0141L323.804 56.6868ZM329.64 58.3185C331.6 58.3185 333.336 57.972 334.812 57.2343L333.917 55.4454C332.783 56.0126 331.37 56.3185 329.64 56.3185V58.3185ZM334.815 57.2326C336.296 56.4852 337.45 55.4179 338.244 54.0326L336.508 53.0384C335.922 54.0622 335.068 54.8645 333.914 55.4471L334.815 57.2326ZM338.24 54.0394C339.046 52.6565 339.43 51.052 339.43 49.2631H337.43C337.43 50.7617 337.111 52.0054 336.512 53.0316L338.24 54.0394ZM338.284 50.2524L339.94 50.4971L340.232 48.5185L338.576 48.2739L338.284 50.2524ZM340.086 48.5078H330.149V50.5078H340.086V48.5078ZM331.149 49.5078V43.3722H329.149V49.5078H331.149ZM330.149 44.3722H346.278V42.3722H330.149V44.3722ZM345.278 43.3722V48.228H347.278V43.3722H345.278ZM345.278 48.228C345.278 51.4733 344.594 54.2018 343.27 56.4543L344.995 57.4676C346.532 54.8517 347.278 51.7582 347.278 48.228H345.278ZM343.272 56.4524C341.936 58.7127 340.104 60.4524 337.758 61.6842L338.688 63.455C341.36 62.0519 343.468 60.0524 344.994 57.4695L343.272 56.4524ZM337.761 61.6824C335.414 62.9031 332.703 63.527 329.603 63.527V65.527C332.977 65.527 336.013 64.8459 338.684 63.4568L337.761 61.6824ZM329.603 63.527C326.141 63.527 323.145 62.7651 320.583 61.2727L319.576 63.0008C322.485 64.6953 325.838 65.527 329.603 65.527V63.527ZM320.586 61.2744C318.021 59.7683 316.016 57.6338 314.568 54.8439L312.793 55.7654C314.406 58.8728 316.667 61.2931 319.573 62.9991L320.586 61.2744ZM314.57 54.8484C313.139 52.0564 312.403 48.7063 312.403 44.7649H310.403C310.403 48.9542 311.185 52.6306 312.79 55.7609L314.57 54.8484ZM312.403 44.7649C312.403 41.7361 312.841 39.0711 313.696 36.7548L311.82 36.062C310.868 38.6392 310.403 41.5452 310.403 44.7649H312.403ZM313.695 36.7574C314.568 34.4128 315.779 32.451 317.318 30.8535L315.877 29.4661C314.129 31.2815 312.78 33.4854 311.821 36.0594L313.695 36.7574ZM317.318 30.8535C318.865 29.247 320.662 28.0277 322.716 27.1897L321.96 25.338C319.647 26.2818 317.617 27.6597 315.877 29.4661L317.318 30.8535ZM322.716 27.1897C324.77 26.3516 327.005 25.9276 329.433 25.9276V23.9276C326.767 23.9276 324.273 24.3944 321.96 25.338L322.716 27.1897ZM329.433 25.9276C331.518 25.9276 333.441 26.2328 335.21 26.8342L335.853 24.9407C333.858 24.2622 331.715 23.9276 329.433 23.9276V25.9276ZM335.215 26.8361C336.994 27.4291 338.558 28.2664 339.916 29.3435L341.159 27.7765C339.606 26.5449 337.833 25.6005 335.848 24.9387L335.215 26.8361ZM339.92 29.3461C341.29 30.4236 342.404 31.702 343.269 33.1853L344.997 32.1784C344.004 30.4746 342.722 29.0052 341.156 27.7739L339.92 29.3461ZM343.27 33.1882C344.129 34.65 344.684 36.2675 344.93 38.0509L346.911 37.7772C346.631 35.7462 345.993 33.8755 344.995 32.1754L343.27 33.1882ZM345.921 36.9141H337.639V38.9141H345.921V36.9141ZM372.378 51.6911H371.378L371.378 51.7008L372.378 51.6911ZM372.378 35.0909V34.0909H371.378V35.0909H372.378ZM380.396 35.0909H381.396V34.0909H380.396V35.0909ZM380.396 64V65H381.396V64H380.396ZM372.698 64H371.698V65H372.698V64ZM372.698 58.7489H373.698V57.7489H372.698V58.7489ZM372.397 58.7489V57.7489H371.71L371.464 58.3895L372.397 58.7489ZM369.141 62.8331L368.58 62.0053L368.576 62.0075L369.141 62.8331ZM358.526 63.0589L359.039 62.2008L358.526 63.0589ZM355.081 59.3136L354.188 59.7636L354.191 59.769L355.081 59.3136ZM353.839 53.4979H352.839L352.839 53.5034L353.839 53.4979ZM353.839 35.0909V34.0909H352.839V35.0909H353.839ZM361.857 35.0909H362.857V34.0909H361.857V35.0909ZM361.857 52.0675H360.857L360.857 52.0748L361.857 52.0675ZM363.231 56.114L363.97 55.4404L363.231 56.114ZM369.574 56.9421L370.037 57.8285L370.047 57.823L369.574 56.9421ZM371.606 54.9471L370.749 54.4326L370.743 54.4417L371.606 54.9471ZM373.378 51.6911V35.0909H371.378V51.6911H373.378ZM372.378 36.0909H380.396V34.0909H372.378V36.0909ZM379.396 35.0909V64H381.396V35.0909H379.396ZM380.396 63H372.698V65H380.396V63ZM373.698 64V58.7489H371.698V64H373.698ZM372.698 57.7489H372.397V59.7489H372.698V57.7489ZM371.464 58.3895C370.885 59.8908 369.931 61.0896 368.58 62.0053L369.702 63.6609C371.387 62.5188 372.603 60.9948 373.33 59.1084L371.464 58.3895ZM368.576 62.0075C367.267 62.9025 365.635 63.3764 363.626 63.3764V65.3764C365.959 65.3764 368.003 64.8214 369.705 63.6587L368.576 62.0075ZM363.626 63.3764C361.851 63.3764 360.333 62.9747 359.039 62.2008L358.012 63.9171C359.655 64.8998 361.537 65.3764 363.626 65.3764V63.3764ZM359.039 62.2008C357.742 61.4249 356.72 60.3208 355.972 58.8581L354.191 59.769C355.099 61.5436 356.373 62.9364 358.012 63.9171L359.039 62.2008ZM355.974 58.8636C355.243 57.4126 354.851 55.6336 354.839 53.4923L352.839 53.5034C352.852 55.8792 353.288 57.9773 354.188 59.7635L355.974 58.8636ZM354.839 53.4979V35.0909H352.839V53.4979H354.839ZM353.839 36.0909H361.857V34.0909H353.839V36.0909ZM360.857 35.0909V52.0675H362.857V35.0909H360.857ZM360.857 52.0748C360.871 53.9585 361.381 55.5685 362.492 56.7876L363.97 55.4404C363.274 54.677 362.868 53.5893 362.857 52.0601L360.857 52.0748ZM362.492 56.7876C363.611 58.0153 365.105 58.6009 366.863 58.6009V56.6009C365.585 56.6009 364.658 56.1952 363.97 55.4404L362.492 56.7876ZM366.863 58.6009C367.988 58.6009 369.05 58.3437 370.037 57.8285L369.111 56.0558C368.416 56.4188 367.671 56.6009 366.863 56.6009V58.6009ZM370.047 57.823C371.06 57.2785 371.868 56.4784 372.469 55.4525L370.743 54.4417C370.315 55.1724 369.768 55.7023 369.1 56.0612L370.047 57.823ZM372.464 55.4616C373.108 54.3885 373.392 53.1104 373.378 51.6813L371.378 51.7008C371.389 52.8564 371.159 53.7491 370.749 54.4326L372.464 55.4616ZM388.399 64H387.399V65H388.399V64ZM388.399 35.0909V34.0909H387.399V35.0909H388.399ZM396.417 35.0909H397.417V34.0909H396.417V35.0909ZM396.417 64V65H397.417V64H396.417ZM389.359 30.1786L388.668 30.9017L388.674 30.907L388.679 30.9122L389.359 30.1786ZM389.359 24.457L390.044 25.1856L390.044 25.1852L389.359 24.457ZM395.476 24.457L394.785 25.1801L394.79 25.1854L394.796 25.1906L395.476 24.457ZM395.476 30.1786L396.161 30.9071L396.161 30.9068L395.476 30.1786ZM389.399 64V35.0909H387.399V64H389.399ZM388.399 36.0909H396.417V34.0909H388.399V36.0909ZM395.417 35.0909V64H397.417V35.0909H395.417ZM396.417 63H388.399V65H396.417V63ZM392.427 30.3643C391.48 30.3643 390.702 30.0596 390.038 29.4451L388.679 30.9122C389.722 31.8786 390.99 32.3643 392.427 32.3643V30.3643ZM390.05 29.4555C389.397 28.8325 389.098 28.1302 389.098 27.299H387.098C387.098 28.7012 387.639 29.9187 388.668 30.9017L390.05 29.4555ZM389.098 27.299C389.098 26.4844 389.394 25.7966 390.044 25.1856L388.674 23.7285C387.642 24.6984 387.098 25.9053 387.098 27.299H389.098ZM390.044 25.1852C390.708 24.5601 391.484 24.2525 392.427 24.2525V22.2525C390.985 22.2525 389.716 22.7479 388.673 23.7288L390.044 25.1852ZM392.427 24.2525C393.369 24.2525 394.135 24.5598 394.785 25.1801L396.166 23.7339C395.134 22.7482 393.869 22.2525 392.427 22.2525V24.2525ZM394.796 25.1906C395.457 25.8032 395.755 26.4896 395.755 27.299H397.755C397.755 25.9001 397.2 24.6918 396.155 23.7235L394.796 25.1906ZM395.755 27.299C395.755 28.1251 395.454 28.8259 394.79 29.4504L396.161 30.9068C397.204 29.9253 397.755 28.7063 397.755 27.299H395.755ZM394.791 29.4501C394.142 30.0599 393.373 30.3643 392.427 30.3643V32.3643C393.864 32.3643 395.128 31.8783 396.161 30.9071L394.791 29.4501ZM409.116 62.7766L408.573 63.6169L408.58 63.6213L409.116 62.7766ZM404.9 57.7514L403.992 58.1718L403.995 58.178L404.9 57.7514ZM404.956 41.3207L405.856 41.7576L405.857 41.7556L404.956 41.3207ZM409.21 36.3707L409.735 37.2218L409.737 37.2207L409.21 36.3707ZM419.11 35.5426L418.654 36.4329L418.667 36.4391L419.11 35.5426ZM421.745 37.5753L420.97 38.2072L420.975 38.2137L420.98 38.2202L421.745 37.5753ZM423.288 39.9467L422.377 40.3583L422.642 40.9467H423.288V39.9467ZM423.533 39.9467V40.9467H424.533V39.9467H423.533ZM423.533 25.4545V24.4545H422.533V25.4545H423.533ZM431.532 25.4545H432.532V24.4545H431.532V25.4545ZM431.532 64V65H432.532V64H431.532ZM423.627 64H422.627V65H423.627V64ZM423.627 59.37H424.627V58.37H423.627V59.37ZM423.288 59.37V58.37H422.652L422.383 58.9456L423.288 59.37ZM421.688 61.7603L420.935 61.1026L420.934 61.1035L421.688 61.7603ZM419.034 63.6989L418.608 62.7943L418.604 62.7962L419.034 63.6989ZM420.898 57.0362L421.517 57.8214L421.518 57.8203L420.898 57.0362ZM422.968 54.0437L422.034 53.6865L422.031 53.6946L422.968 54.0437ZM422.987 45.0661L423.923 44.7139L422.987 45.0661ZM414.292 42.1676L413.671 41.3836L414.292 42.1676ZM412.24 54.006L411.299 54.3441L411.303 54.3551L412.24 54.006ZM414.292 57.0174L413.659 57.7918L413.665 57.7967L413.671 57.8014L414.292 57.0174ZM415.082 63.4705C413.068 63.4705 411.266 62.9555 409.651 61.932L408.58 63.6213C410.529 64.8563 412.705 65.4705 415.082 65.4705V63.4705ZM409.658 61.9364C408.07 60.9112 406.779 59.3917 405.804 57.3249L403.995 58.178C405.104 60.5279 406.624 62.3584 408.574 63.6168L409.658 61.9364ZM405.807 57.3311C404.855 55.2767 404.357 52.7066 404.357 49.5831H402.357C402.357 52.9089 402.886 55.7843 403.993 58.1718L405.807 57.3311ZM404.357 49.5831C404.357 46.3707 404.875 43.7776 405.856 41.7576L404.057 40.8838C402.905 43.2553 402.357 46.1705 402.357 49.5831H404.357ZM405.857 41.7556C406.856 39.6876 408.155 38.1965 409.735 37.2218L408.685 35.5197C406.726 36.7282 405.19 38.5371 404.056 40.8858L405.857 41.7556ZM409.737 37.2207C411.358 36.2158 413.127 35.7145 415.063 35.7145V33.7145C412.759 33.7145 410.625 34.3173 408.683 35.5207L409.737 37.2207ZM415.063 35.7145C416.574 35.7145 417.755 35.973 418.654 36.4329L419.565 34.6524C418.306 34.0081 416.789 33.7145 415.063 33.7145V35.7145ZM418.667 36.4391C419.65 36.9251 420.408 37.5187 420.97 38.2072L422.52 36.9433C421.751 36.0007 420.753 35.2392 419.553 34.6461L418.667 36.4391ZM420.98 38.2202C421.612 38.9682 422.071 39.6813 422.377 40.3583L424.199 39.5351C423.802 38.6563 423.233 37.7884 422.509 36.9304L420.98 38.2202ZM423.288 40.9467H423.533V38.9467H423.288V40.9467ZM424.533 39.9467V25.4545H422.533V39.9467H424.533ZM423.533 26.4545H431.532V24.4545H423.533V26.4545ZM430.532 25.4545V64H432.532V25.4545H430.532ZM431.532 63H423.627V65H431.532V63ZM424.627 64V59.37H422.627V64H424.627ZM423.627 58.37H423.288V60.37H423.627V58.37ZM422.383 58.9456C422.052 59.6504 421.575 60.37 420.935 61.1026L422.442 62.418C423.182 61.5697 423.771 60.6957 424.193 59.7945L422.383 58.9456ZM420.934 61.1035C420.362 61.7608 419.596 62.3289 418.608 62.7943L419.461 64.6034C420.657 64.0399 421.66 63.3156 422.442 62.4171L420.934 61.1035ZM418.604 62.7962C417.694 63.2303 416.532 63.4705 415.082 63.4705V65.4705C416.744 65.4705 418.217 65.1963 419.465 64.6015L418.604 62.7962ZM417.623 59.0902C419.107 59.0902 420.426 58.6823 421.517 57.8214L420.278 56.2511C419.588 56.7955 418.723 57.0902 417.623 57.0902V59.0902ZM421.518 57.8203C422.59 56.9722 423.376 55.8118 423.905 54.3928L422.031 53.6946C421.606 54.8353 421.013 55.6698 420.277 56.2522L421.518 57.8203ZM423.902 54.4008C424.445 52.9821 424.702 51.3567 424.702 49.5455H422.702C422.702 51.1722 422.47 52.5456 422.034 53.6865L423.902 54.4008ZM424.702 49.5455C424.702 47.7372 424.452 46.1195 423.923 44.7139L422.051 45.4182C422.476 46.5471 422.702 47.9157 422.702 49.5455H424.702ZM423.923 44.7139C423.393 43.3051 422.602 42.1593 421.524 41.3353L420.31 42.9246C421.038 43.4808 421.627 44.2925 422.051 45.4182L423.923 44.7139ZM421.524 41.3353C420.422 40.4941 419.103 40.0948 417.623 40.0948V42.0948C418.727 42.0948 419.604 42.3856 420.31 42.9246L421.524 41.3353ZM417.623 40.0948C416.114 40.0948 414.776 40.5088 413.671 41.3836L414.912 42.9517C415.614 42.396 416.497 42.0948 417.623 42.0948V40.0948ZM413.671 41.3836C412.6 42.2317 411.818 43.3869 411.301 44.7974L413.179 45.4853C413.591 44.3612 414.177 43.534 414.912 42.9517L413.671 41.3836ZM411.301 44.7974C410.788 46.1974 410.544 47.786 410.544 49.5455H412.544C412.544 47.9673 412.763 46.6198 413.179 45.4853L411.301 44.7974ZM410.544 49.5455C410.544 51.3171 410.788 52.922 411.299 54.3441L413.181 53.668C412.764 52.5053 412.544 51.1365 412.544 49.5455H410.544ZM411.303 54.3551C411.83 55.7699 412.607 56.9324 413.659 57.7918L414.924 56.243C414.195 55.6469 413.604 54.8018 413.177 53.6569L411.303 54.3551ZM413.671 57.8014C414.776 58.6762 416.114 59.0902 417.623 59.0902V57.0902C416.497 57.0902 415.614 56.789 414.912 56.2334L413.671 57.8014ZM445.209 62.7578L444.714 63.6264L444.72 63.6298L445.209 62.7578ZM440.278 57.6009L439.39 58.06L439.391 58.062L440.278 57.6009ZM440.278 41.8477L439.389 41.3905L440.278 41.8477ZM445.153 36.5966L444.641 35.7373L444.639 35.7386L445.153 36.5966ZM457.895 35.6367L457.544 36.5734L457.553 36.5765L457.895 35.6367ZM462.224 38.3658L461.52 39.0765L461.524 39.0801L462.224 38.3658ZM465.122 42.9581L464.185 43.3085L464.186 43.3106L465.122 42.9581ZM466.157 51.5969V52.5969H467.157V51.5969H466.157ZM441.746 51.5969H440.746V52.5969H441.746V51.5969ZM441.746 46.6282V45.6282H440.746V46.6282H441.746ZM458.61 46.6282V47.6282H459.61V46.6282H458.61ZM457.857 43.5604L456.986 44.0512V44.0512L457.857 43.5604ZM455.768 41.4712L455.263 42.3341L455.27 42.3384L455.277 42.3425L455.768 41.4712ZM449.463 41.5465L449.974 42.4061L449.977 42.404L449.463 41.5465ZM447.28 43.7862L448.149 44.2798L448.152 44.2748L447.28 43.7862ZM446.47 46.8917L445.47 46.8807V46.8917H446.47ZM447.261 55.3235L446.369 55.775L446.373 55.7835L447.261 55.3235ZM455.467 58.2031L455.146 57.2561L455.467 58.2031ZM457.368 57.0739L456.678 56.3497V56.3497L457.368 57.0739ZM458.572 55.2294L458.638 54.2316L457.9 54.1828L457.637 54.8747L458.572 55.2294ZM465.988 55.7188L466.966 55.9255L467.205 54.7969L466.054 54.7209L465.988 55.7188ZM463.673 60.3864L462.921 59.7269L462.921 59.7274L463.673 60.3864ZM459.193 63.473L459.565 64.4015L459.568 64.4002L459.193 63.473ZM452.888 63.5646C450.051 63.5646 447.667 62.9906 445.699 61.8858L444.72 63.6298C447.043 64.9341 449.779 65.5646 452.888 65.5646V63.5646ZM445.705 61.8893C443.742 60.7694 442.233 59.1934 441.166 57.1397L439.391 58.062C440.632 60.4501 442.41 62.3121 444.714 63.6264L445.705 61.8893ZM441.167 57.1417C440.1 55.0773 439.547 52.6 439.547 49.6772H437.547C437.547 52.8524 438.148 55.6575 439.39 58.06L441.167 57.1417ZM439.547 49.6772C439.547 46.8343 440.098 44.3863 441.168 42.3048L439.389 41.3905C438.15 43.801 437.547 46.5726 437.547 49.6772H439.547ZM441.168 42.3048C442.24 40.2189 443.737 38.61 445.667 37.4545L444.639 35.7386C442.378 37.0927 440.626 38.9844 439.389 41.3905L441.168 42.3048ZM445.664 37.4559C447.595 36.3068 449.884 35.7145 452.568 35.7145V33.7145C449.581 33.7145 446.927 34.3769 444.641 35.7373L445.664 37.4559ZM452.568 35.7145C454.366 35.7145 456.022 36.0039 457.544 36.5733L458.245 34.7001C456.48 34.0399 454.585 33.7145 452.568 33.7145V35.7145ZM457.553 36.5765C459.076 37.1304 460.395 37.9629 461.52 39.0765L462.927 37.655C461.593 36.3344 460.026 35.3476 458.237 34.6969L457.553 36.5765ZM461.524 39.0801C462.648 40.1819 463.54 41.583 464.185 43.3085L466.059 42.6077C465.324 40.6443 464.283 38.9839 462.923 37.6515L461.524 39.0801ZM464.186 43.3106C464.825 45.0051 465.157 47.0264 465.157 49.3949H467.157C467.157 46.8448 466.8 44.5749 466.058 42.6056L464.186 43.3106ZM465.157 49.3949V51.5969H467.157V49.3949H465.157ZM466.157 50.5969H441.746V52.5969H466.157V50.5969ZM442.746 51.5969V46.6282H440.746V51.5969H442.746ZM441.746 47.6282H458.61V45.6282H441.746V47.6282ZM459.61 46.6282C459.61 45.3244 459.325 44.1287 458.728 43.0695L456.986 44.0512C457.393 44.7738 457.61 45.6232 457.61 46.6282H459.61ZM458.728 43.0695C458.137 42.0195 457.309 41.1916 456.259 40.6L455.277 42.3425C456.009 42.7547 456.574 43.3195 456.986 44.0512L458.728 43.0695ZM456.273 40.6084C455.22 39.9916 454.018 39.6996 452.7 39.6996V41.6996C453.716 41.6996 454.559 41.9219 455.263 42.3341L456.273 40.6084ZM452.7 39.6996C451.322 39.6996 450.061 40.0212 448.948 40.689L449.977 42.404C450.747 41.9426 451.644 41.6996 452.7 41.6996V39.6996ZM448.952 40.687C447.873 41.3287 447.02 42.2031 446.407 43.2976L448.152 44.2748C448.593 43.4873 449.196 42.8685 449.974 42.4061L448.952 40.687ZM446.41 43.2926C445.794 44.3786 445.485 45.5817 445.47 46.8807L447.47 46.9027C447.481 45.918 447.712 45.0509 448.149 44.2798L446.41 43.2926ZM445.47 46.8917V51.6158H447.47V46.8917H445.47ZM445.47 51.6158C445.47 53.1682 445.757 54.5656 446.369 55.775L448.153 54.872C447.711 53.9986 447.47 52.9241 447.47 51.6158H445.47ZM446.373 55.7835C446.997 56.9878 447.888 57.9349 449.039 58.5988L450.038 56.8664C449.231 56.4011 448.604 55.742 448.149 54.8635L446.373 55.7835ZM449.039 58.5988C450.196 59.2663 451.535 59.5795 453.02 59.5795V57.5795C451.82 57.5795 450.838 57.3282 450.038 56.8664L449.039 58.5988ZM453.02 59.5795C454.005 59.5795 454.931 59.4407 455.788 59.1502L455.146 57.2561C454.522 57.4674 453.817 57.5795 453.02 57.5795V59.5795ZM455.788 59.1502C456.655 58.8561 457.418 58.4074 458.057 57.798L456.678 56.3497C456.264 56.7441 455.759 57.0482 455.146 57.2561L455.788 59.1502ZM458.057 57.798C458.7 57.1858 459.182 56.4418 459.507 55.5841L457.637 54.8747C457.411 55.4725 457.089 55.9582 456.678 56.3497L458.057 57.798ZM458.507 56.2272L465.922 56.7166L466.054 54.7209L458.638 54.2316L458.507 56.2272ZM465.009 55.512C464.667 57.131 463.971 58.5297 462.921 59.7269L464.425 61.0459C465.708 59.583 466.555 57.8699 466.966 55.9255L465.009 55.512ZM462.921 59.7274C461.882 60.9128 460.524 61.8566 458.819 62.5459L459.568 64.4002C461.526 63.6088 463.155 62.4948 464.425 61.0454L462.921 59.7274ZM458.822 62.5445C457.143 63.216 455.172 63.5646 452.888 63.5646V65.5646C455.373 65.5646 457.605 65.1855 459.565 64.4015L458.822 62.5445Z" fill="black"/>
</g>
<path d="M137.122 102H135.46L140.267 88.9091H141.903L146.71 102H145.048L141.136 90.9801H141.034L137.122 102ZM137.736 96.8864H144.435V98.2926H137.736V96.8864ZM153.607 105.682V92.1818H155.065V93.7415H155.244C155.354 93.571 155.508 93.3537 155.704 93.0895C155.904 92.821 156.19 92.5824 156.56 92.3736C156.935 92.1605 157.442 92.054 158.082 92.054C158.908 92.054 159.637 92.2607 160.268 92.674C160.898 93.0874 161.391 93.6733 161.744 94.4318C162.098 95.1903 162.275 96.0852 162.275 97.1165C162.275 98.1562 162.098 99.0575 161.744 99.8203C161.391 100.579 160.901 101.167 160.274 101.585C159.648 101.998 158.925 102.205 158.107 102.205C157.477 102.205 156.972 102.1 156.592 101.891C156.213 101.678 155.921 101.437 155.717 101.169C155.512 100.896 155.354 100.67 155.244 100.491H155.116V105.682H153.607ZM155.09 97.0909C155.09 97.8324 155.199 98.4865 155.416 99.0533C155.634 99.6158 155.951 100.057 156.369 100.376C156.786 100.692 157.298 100.849 157.903 100.849C158.533 100.849 159.06 100.683 159.482 100.351C159.908 100.014 160.227 99.5625 160.44 98.9957C160.658 98.4247 160.766 97.7898 160.766 97.0909C160.766 96.4006 160.66 95.7784 160.447 95.2244C160.238 94.6662 159.92 94.2251 159.494 93.9013C159.072 93.5732 158.542 93.4091 157.903 93.4091C157.289 93.4091 156.773 93.5646 156.356 93.8757C155.938 94.1825 155.623 94.6129 155.41 95.1669C155.197 95.7166 155.09 96.358 155.09 97.0909ZM168.692 102.205C167.746 102.205 166.93 101.996 166.244 101.578C165.562 101.156 165.036 100.568 164.665 99.8139C164.299 99.0554 164.116 98.1733 164.116 97.1676C164.116 96.1619 164.299 95.2756 164.665 94.5085C165.036 93.7372 165.552 93.1364 166.212 92.706C166.877 92.2713 167.653 92.054 168.539 92.054C169.05 92.054 169.555 92.1392 170.054 92.3097C170.553 92.4801 171.006 92.7571 171.415 93.1406C171.825 93.5199 172.151 94.0227 172.393 94.6491C172.636 95.2756 172.758 96.0469 172.758 96.9631V97.6023H165.19V96.2983H171.224C171.224 95.7443 171.113 95.25 170.891 94.8153C170.674 94.3807 170.363 94.0376 169.958 93.7862C169.558 93.5348 169.085 93.4091 168.539 93.4091C167.938 93.4091 167.418 93.5582 166.979 93.8565C166.545 94.1506 166.21 94.5341 165.976 95.0071C165.741 95.4801 165.624 95.9872 165.624 96.5284V97.3977C165.624 98.1392 165.752 98.7678 166.008 99.2834C166.268 99.7947 166.628 100.185 167.088 100.453C167.548 100.717 168.083 100.849 168.692 100.849C169.089 100.849 169.447 100.794 169.766 100.683C170.09 100.568 170.369 100.398 170.604 100.172C170.838 99.9418 171.019 99.6562 171.147 99.3153L172.604 99.7244C172.451 100.219 172.193 100.653 171.831 101.028C171.469 101.399 171.021 101.689 170.489 101.898C169.956 102.102 169.357 102.205 168.692 102.205ZM175.053 102V92.1818H176.51V93.6648H176.612C176.791 93.179 177.115 92.7848 177.584 92.4822C178.053 92.1797 178.581 92.0284 179.169 92.0284C179.28 92.0284 179.418 92.0305 179.585 92.0348C179.751 92.0391 179.876 92.0455 179.962 92.054V93.5881C179.911 93.5753 179.793 93.5561 179.61 93.5305C179.431 93.5007 179.241 93.4858 179.041 93.4858C178.564 93.4858 178.138 93.5859 177.763 93.7862C177.392 93.9822 177.098 94.255 176.881 94.6044C176.668 94.9496 176.561 95.3437 176.561 95.7869V102H175.053ZM188.704 94.3807L187.349 94.7642C187.264 94.5384 187.138 94.3189 186.972 94.1058C186.81 93.8885 186.589 93.7095 186.307 93.5689C186.026 93.4283 185.666 93.358 185.227 93.358C184.626 93.358 184.126 93.4964 183.725 93.7734C183.329 94.0462 183.131 94.3935 183.131 94.8153C183.131 95.1903 183.267 95.4865 183.54 95.7038C183.812 95.9212 184.238 96.1023 184.818 96.2472L186.275 96.6051C187.153 96.8182 187.807 97.1442 188.238 97.5831C188.668 98.0178 188.883 98.5781 188.883 99.2642C188.883 99.8267 188.721 100.33 188.398 100.773C188.078 101.216 187.631 101.565 187.055 101.821C186.48 102.077 185.811 102.205 185.048 102.205C184.047 102.205 183.218 101.987 182.562 101.553C181.905 101.118 181.49 100.483 181.315 99.6477L182.747 99.2898C182.883 99.8182 183.141 100.214 183.52 100.479C183.904 100.743 184.405 100.875 185.023 100.875C185.726 100.875 186.284 100.726 186.697 100.428C187.115 100.125 187.324 99.7628 187.324 99.3409C187.324 99 187.204 98.7145 186.966 98.4844C186.727 98.25 186.361 98.0753 185.866 97.9602L184.23 97.5767C183.331 97.3636 182.67 97.0334 182.248 96.5859C181.831 96.1342 181.622 95.5696 181.622 94.892C181.622 94.3381 181.778 93.848 182.089 93.4219C182.404 92.9957 182.832 92.6612 183.373 92.4183C183.919 92.1754 184.537 92.054 185.227 92.054C186.199 92.054 186.961 92.267 187.515 92.6932C188.074 93.1193 188.47 93.6818 188.704 94.3807ZM195.143 102.205C194.256 102.205 193.479 101.994 192.81 101.572C192.145 101.15 191.625 100.56 191.25 99.8011C190.879 99.0426 190.694 98.1562 190.694 97.142C190.694 96.1193 190.879 95.2266 191.25 94.4638C191.625 93.701 192.145 93.1087 192.81 92.6868C193.479 92.2649 194.256 92.054 195.143 92.054C196.029 92.054 196.805 92.2649 197.469 92.6868C198.138 93.1087 198.658 93.701 199.029 94.4638C199.404 95.2266 199.592 96.1193 199.592 97.142C199.592 98.1562 199.404 99.0426 199.029 99.8011C198.658 100.56 198.138 101.15 197.469 101.572C196.805 101.994 196.029 102.205 195.143 102.205ZM195.143 100.849C195.816 100.849 196.37 100.677 196.805 100.332C197.239 99.9865 197.561 99.5327 197.77 98.9702C197.979 98.4077 198.083 97.7983 198.083 97.142C198.083 96.4858 197.979 95.8743 197.77 95.3075C197.561 94.7408 197.239 94.2827 196.805 93.9332C196.37 93.5838 195.816 93.4091 195.143 93.4091C194.469 93.4091 193.915 93.5838 193.481 93.9332C193.046 94.2827 192.724 94.7408 192.516 95.3075C192.307 95.8743 192.202 96.4858 192.202 97.142C192.202 97.7983 192.307 98.4077 192.516 98.9702C192.724 99.5327 193.046 99.9865 193.481 100.332C193.915 100.677 194.469 100.849 195.143 100.849ZM203.403 96.0938V102H201.894V92.1818H203.352V93.7159H203.48C203.71 93.2173 204.059 92.8168 204.528 92.5142C204.997 92.2074 205.602 92.054 206.343 92.054C207.008 92.054 207.59 92.1903 208.088 92.4631C208.587 92.7315 208.975 93.1406 209.252 93.6903C209.529 94.2358 209.667 94.9261 209.667 95.7614V102H208.159V95.8636C208.159 95.0923 207.958 94.4915 207.558 94.0611C207.157 93.6264 206.607 93.4091 205.909 93.4091C205.427 93.4091 204.997 93.5135 204.617 93.7223C204.242 93.9311 203.946 94.2358 203.729 94.6364C203.512 95.0369 203.403 95.5227 203.403 96.0938ZM215.313 102.23C214.691 102.23 214.126 102.113 213.619 101.879C213.112 101.64 212.709 101.297 212.411 100.849C212.113 100.398 211.963 99.8523 211.963 99.2131C211.963 98.6506 212.074 98.1946 212.296 97.8452C212.517 97.4915 212.814 97.2145 213.184 97.0142C213.555 96.8139 213.964 96.6648 214.412 96.5668C214.863 96.4645 215.317 96.3835 215.773 96.3239C216.37 96.2472 216.853 96.1896 217.224 96.1513C217.599 96.1087 217.872 96.0384 218.042 95.9403C218.217 95.8423 218.304 95.6719 218.304 95.429V95.3778C218.304 94.7472 218.132 94.2571 217.787 93.9077C217.446 93.5582 216.928 93.3835 216.233 93.3835C215.513 93.3835 214.949 93.5412 214.539 93.8565C214.13 94.1719 213.843 94.5085 213.676 94.8665L212.245 94.3551C212.5 93.7585 212.841 93.294 213.267 92.9616C213.698 92.625 214.167 92.3906 214.674 92.2585C215.185 92.1222 215.688 92.054 216.182 92.054C216.498 92.054 216.86 92.0923 217.269 92.169C217.682 92.2415 218.081 92.3928 218.464 92.6229C218.852 92.853 219.174 93.2003 219.429 93.6648C219.685 94.1293 219.813 94.7514 219.813 95.5312V102H218.304V100.67H218.228C218.125 100.884 217.955 101.112 217.716 101.354C217.478 101.597 217.16 101.804 216.764 101.974C216.368 102.145 215.884 102.23 215.313 102.23ZM215.543 100.875C216.14 100.875 216.642 100.758 217.051 100.523C217.465 100.289 217.776 99.9865 217.985 99.6158C218.198 99.245 218.304 98.8551 218.304 98.446V97.0653C218.24 97.142 218.1 97.2124 217.882 97.2763C217.669 97.3359 217.422 97.3892 217.141 97.4361C216.864 97.4787 216.593 97.517 216.329 97.5511C216.069 97.581 215.858 97.6065 215.696 97.6278C215.304 97.679 214.938 97.7621 214.597 97.8771C214.26 97.9879 213.988 98.1562 213.779 98.3821C213.574 98.6037 213.472 98.9062 213.472 99.2898C213.472 99.8139 213.666 100.21 214.054 100.479C214.446 100.743 214.942 100.875 215.543 100.875ZM224.075 88.9091V102H222.566V88.9091H224.075ZM238.855 94.3807L237.5 94.7642C237.414 94.5384 237.289 94.3189 237.123 94.1058C236.961 93.8885 236.739 93.7095 236.458 93.5689C236.176 93.4283 235.816 93.358 235.377 93.358C234.777 93.358 234.276 93.4964 233.875 93.7734C233.479 94.0462 233.281 94.3935 233.281 94.8153C233.281 95.1903 233.417 95.4865 233.69 95.7038C233.963 95.9212 234.389 96.1023 234.968 96.2472L236.426 96.6051C237.304 96.8182 237.958 97.1442 238.388 97.5831C238.819 98.0178 239.034 98.5781 239.034 99.2642C239.034 99.8267 238.872 100.33 238.548 100.773C238.228 101.216 237.781 101.565 237.206 101.821C236.63 102.077 235.961 102.205 235.199 102.205C234.197 102.205 233.368 101.987 232.712 101.553C232.056 101.118 231.64 100.483 231.466 99.6477L232.897 99.2898C233.034 99.8182 233.292 100.214 233.671 100.479C234.054 100.743 234.555 100.875 235.173 100.875C235.876 100.875 236.434 100.726 236.848 100.428C237.265 100.125 237.474 99.7628 237.474 99.3409C237.474 99 237.355 98.7145 237.116 98.4844C236.877 98.25 236.511 98.0753 236.017 97.9602L234.38 97.5767C233.481 97.3636 232.821 97.0334 232.399 96.5859C231.981 96.1342 231.772 95.5696 231.772 94.892C231.772 94.3381 231.928 93.848 232.239 93.4219C232.554 92.9957 232.983 92.6612 233.524 92.4183C234.069 92.1754 234.687 92.054 235.377 92.054C236.349 92.054 237.112 92.267 237.666 92.6932C238.224 93.1193 238.62 93.6818 238.855 94.3807ZM247.492 97.9858V92.1818H249.001V102H247.492V100.338H247.39C247.16 100.837 246.802 101.261 246.316 101.61C245.83 101.955 245.216 102.128 244.475 102.128C243.861 102.128 243.316 101.994 242.839 101.725C242.361 101.452 241.986 101.043 241.714 100.498C241.441 99.9482 241.305 99.2557 241.305 98.4205V92.1818H242.813V98.3182C242.813 99.0341 243.013 99.6051 243.414 100.031C243.819 100.457 244.334 100.67 244.961 100.67C245.336 100.67 245.717 100.575 246.105 100.383C246.497 100.191 246.825 99.897 247.089 99.5007C247.358 99.1044 247.492 98.5994 247.492 97.9858ZM251.763 102V92.1818H253.221V93.7159H253.349C253.553 93.1918 253.884 92.7848 254.339 92.495C254.795 92.201 255.343 92.054 255.982 92.054C256.63 92.054 257.169 92.201 257.599 92.495C258.034 92.7848 258.373 93.1918 258.616 93.7159H258.718C258.969 93.2088 259.347 92.8061 259.849 92.5078C260.352 92.2053 260.955 92.054 261.658 92.054C262.536 92.054 263.254 92.3288 263.812 92.8786C264.371 93.424 264.65 94.2741 264.65 95.429V102H263.141V95.429C263.141 94.7045 262.943 94.1868 262.547 93.8757C262.151 93.5646 261.684 93.4091 261.147 93.4091C260.457 93.4091 259.922 93.6179 259.543 94.0355C259.163 94.4489 258.974 94.973 258.974 95.608V102H257.44V95.2756C257.44 94.7173 257.259 94.2678 256.896 93.9268C256.534 93.5817 256.067 93.4091 255.496 93.4091C255.104 93.4091 254.738 93.5135 254.397 93.7223C254.06 93.9311 253.788 94.2209 253.579 94.5916C253.374 94.9581 253.272 95.3821 253.272 95.8636V102H251.763ZM267.408 102V92.1818H268.865V93.7159H268.993C269.198 93.1918 269.528 92.7848 269.984 92.495C270.44 92.201 270.988 92.054 271.627 92.054C272.275 92.054 272.814 92.201 273.244 92.495C273.679 92.7848 274.017 93.1918 274.26 93.7159H274.363C274.614 93.2088 274.991 92.8061 275.494 92.5078C275.997 92.2053 276.6 92.054 277.303 92.054C278.181 92.054 278.899 92.3288 279.457 92.8786C280.015 93.424 280.294 94.2741 280.294 95.429V102H278.786V95.429C278.786 94.7045 278.588 94.1868 278.191 93.8757C277.795 93.5646 277.328 93.4091 276.792 93.4091C276.101 93.4091 275.566 93.6179 275.187 94.0355C274.808 94.4489 274.618 94.973 274.618 95.608V102H273.084V95.2756C273.084 94.7173 272.903 94.2678 272.541 93.9268C272.179 93.5817 271.712 93.4091 271.141 93.4091C270.749 93.4091 270.382 93.5135 270.042 93.7223C269.705 93.9311 269.432 94.2209 269.223 94.5916C269.019 94.9581 268.917 95.3821 268.917 95.8636V102H267.408ZM285.942 102.23C285.32 102.23 284.755 102.113 284.248 101.879C283.741 101.64 283.338 101.297 283.04 100.849C282.741 100.398 282.592 99.8523 282.592 99.2131C282.592 98.6506 282.703 98.1946 282.925 97.8452C283.146 97.4915 283.442 97.2145 283.813 97.0142C284.184 96.8139 284.593 96.6648 285.04 96.5668C285.492 96.4645 285.946 96.3835 286.402 96.3239C286.999 96.2472 287.482 96.1896 287.853 96.1513C288.228 96.1087 288.501 96.0384 288.671 95.9403C288.846 95.8423 288.933 95.6719 288.933 95.429V95.3778C288.933 94.7472 288.761 94.2571 288.415 93.9077C288.075 93.5582 287.557 93.3835 286.862 93.3835C286.142 93.3835 285.577 93.5412 285.168 93.8565C284.759 94.1719 284.472 94.5085 284.305 94.8665L282.874 94.3551C283.129 93.7585 283.47 93.294 283.896 92.9616C284.327 92.625 284.795 92.3906 285.303 92.2585C285.814 92.1222 286.317 92.054 286.811 92.054C287.126 92.054 287.489 92.0923 287.898 92.169C288.311 92.2415 288.71 92.3928 289.093 92.6229C289.481 92.853 289.803 93.2003 290.058 93.6648C290.314 94.1293 290.442 94.7514 290.442 95.5312V102H288.933V100.67H288.857C288.754 100.884 288.584 101.112 288.345 101.354C288.107 101.597 287.789 101.804 287.393 101.974C286.996 102.145 286.513 102.23 285.942 102.23ZM286.172 100.875C286.768 100.875 287.271 100.758 287.68 100.523C288.094 100.289 288.405 99.9865 288.614 99.6158C288.827 99.245 288.933 98.8551 288.933 98.446V97.0653C288.869 97.142 288.729 97.2124 288.511 97.2763C288.298 97.3359 288.051 97.3892 287.77 97.4361C287.493 97.4787 287.222 97.517 286.958 97.5511C286.698 97.581 286.487 97.6065 286.325 97.6278C285.933 97.679 285.567 97.7621 285.226 97.8771C284.889 97.9879 284.616 98.1562 284.408 98.3821C284.203 98.6037 284.101 98.9062 284.101 99.2898C284.101 99.8139 284.295 100.21 284.683 100.479C285.075 100.743 285.571 100.875 286.172 100.875ZM293.195 102V92.1818H294.653V93.6648H294.755C294.934 93.179 295.258 92.7848 295.726 92.4822C296.195 92.1797 296.724 92.0284 297.312 92.0284C297.422 92.0284 297.561 92.0305 297.727 92.0348C297.893 92.0391 298.019 92.0455 298.104 92.054V93.5881C298.053 93.5753 297.936 93.5561 297.753 93.5305C297.574 93.5007 297.384 93.4858 297.184 93.4858C296.706 93.4858 296.28 93.5859 295.905 93.7862C295.535 93.9822 295.241 94.255 295.023 94.6044C294.81 94.9496 294.704 95.3437 294.704 95.7869V102H293.195ZM301.163 105.682C300.907 105.682 300.679 105.661 300.479 105.618C300.279 105.58 300.14 105.541 300.063 105.503L300.447 104.173C300.813 104.267 301.137 104.301 301.419 104.276C301.7 104.25 301.949 104.124 302.166 103.898C302.388 103.677 302.59 103.317 302.774 102.818L303.055 102.051L299.424 92.1818H301.061L303.771 100.006H303.873L306.583 92.1818H308.22L304.052 103.432C303.865 103.939 303.632 104.359 303.355 104.691C303.078 105.028 302.757 105.277 302.39 105.439C302.028 105.601 301.619 105.682 301.163 105.682ZM319.262 102.205C318.376 102.205 317.598 101.994 316.929 101.572C316.264 101.15 315.744 100.56 315.369 99.8011C314.998 99.0426 314.813 98.1562 314.813 97.142C314.813 96.1193 314.998 95.2266 315.369 94.4638C315.744 93.701 316.264 93.1087 316.929 92.6868C317.598 92.2649 318.376 92.054 319.262 92.054C320.148 92.054 320.924 92.2649 321.589 92.6868C322.258 93.1087 322.778 93.701 323.148 94.4638C323.523 95.2266 323.711 96.1193 323.711 97.142C323.711 98.1562 323.523 99.0426 323.148 99.8011C322.778 100.56 322.258 101.15 321.589 101.572C320.924 101.994 320.148 102.205 319.262 102.205ZM319.262 100.849C319.935 100.849 320.489 100.677 320.924 100.332C321.358 99.9865 321.68 99.5327 321.889 98.9702C322.098 98.4077 322.202 97.7983 322.202 97.142C322.202 96.4858 322.098 95.8743 321.889 95.3075C321.68 94.7408 321.358 94.2827 320.924 93.9332C320.489 93.5838 319.935 93.4091 319.262 93.4091C318.589 93.4091 318.035 93.5838 317.6 93.9332C317.165 94.2827 316.844 94.7408 316.635 95.3075C316.426 95.8743 316.322 96.4858 316.322 97.142C316.322 97.7983 316.426 98.4077 316.635 98.9702C316.844 99.5327 317.165 99.9865 317.6 100.332C318.035 100.677 318.589 100.849 319.262 100.849ZM330.386 92.1818V93.4602H325.093V92.1818H330.386ZM326.678 102V90.8267C326.678 90.2642 326.81 89.7955 327.075 89.4205C327.339 89.0455 327.682 88.7642 328.104 88.5767C328.526 88.3892 328.971 88.2955 329.44 88.2955C329.81 88.2955 330.113 88.3253 330.347 88.3849C330.582 88.4446 330.756 88.5 330.871 88.5511L330.437 89.8551C330.36 89.8295 330.254 89.7976 330.117 89.7592C329.985 89.7209 329.81 89.7017 329.593 89.7017C329.094 89.7017 328.734 89.8274 328.513 90.0788C328.295 90.3303 328.187 90.6989 328.187 91.1847V102H326.678ZM340.452 102.23C339.829 102.23 339.265 102.113 338.758 101.879C338.251 101.64 337.848 101.297 337.55 100.849C337.251 100.398 337.102 99.8523 337.102 99.2131C337.102 98.6506 337.213 98.1946 337.434 97.8452C337.656 97.4915 337.952 97.2145 338.323 97.0142C338.694 96.8139 339.103 96.6648 339.55 96.5668C340.002 96.4645 340.456 96.3835 340.912 96.3239C341.508 96.2472 341.992 96.1896 342.363 96.1513C342.738 96.1087 343.01 96.0384 343.181 95.9403C343.356 95.8423 343.443 95.6719 343.443 95.429V95.3778C343.443 94.7472 343.27 94.2571 342.925 93.9077C342.584 93.5582 342.067 93.3835 341.372 93.3835C340.652 93.3835 340.087 93.5412 339.678 93.8565C339.269 94.1719 338.981 94.5085 338.815 94.8665L337.383 94.3551C337.639 93.7585 337.98 93.294 338.406 92.9616C338.836 92.625 339.305 92.3906 339.812 92.2585C340.324 92.1222 340.827 92.054 341.321 92.054C341.636 92.054 341.998 92.0923 342.407 92.169C342.821 92.2415 343.219 92.3928 343.603 92.6229C343.991 92.853 344.312 93.2003 344.568 93.6648C344.824 94.1293 344.952 94.7514 344.952 95.5312V102H343.443V100.67H343.366C343.264 100.884 343.094 101.112 342.855 101.354C342.616 101.597 342.299 101.804 341.903 101.974C341.506 102.145 341.023 102.23 340.452 102.23ZM340.682 100.875C341.278 100.875 341.781 100.758 342.19 100.523C342.604 100.289 342.915 99.9865 343.123 99.6158C343.336 99.245 343.443 98.8551 343.443 98.446V97.0653C343.379 97.142 343.238 97.2124 343.021 97.2763C342.808 97.3359 342.561 97.3892 342.28 97.4361C342.003 97.4787 341.732 97.517 341.468 97.5511C341.208 97.581 340.997 97.6065 340.835 97.6278C340.443 97.679 340.077 97.7621 339.736 97.8771C339.399 97.9879 339.126 98.1562 338.917 98.3821C338.713 98.6037 338.611 98.9062 338.611 99.2898C338.611 99.8139 338.805 100.21 339.192 100.479C339.584 100.743 340.081 100.875 340.682 100.875ZM349.213 96.0938V102H347.705V92.1818H349.162V93.7159H349.29C349.52 93.2173 349.87 92.8168 350.338 92.5142C350.807 92.2074 351.412 92.054 352.154 92.054C352.819 92.054 353.4 92.1903 353.899 92.4631C354.397 92.7315 354.785 93.1406 355.062 93.6903C355.339 94.2358 355.478 94.9261 355.478 95.7614V102H353.969V95.8636C353.969 95.0923 353.769 94.4915 353.368 94.0611C352.968 93.6264 352.418 93.4091 351.719 93.4091C351.238 93.4091 350.807 93.5135 350.428 93.7223C350.053 93.9311 349.757 94.2358 349.539 94.6364C349.322 95.0369 349.213 95.5227 349.213 96.0938ZM363.501 102V88.9091H365.086V94.7386H372.067V88.9091H373.652V102H372.067V96.1449H365.086V102H363.501ZM376.11 90.3153V88.9091H385.928V90.3153H381.811V102H380.226V90.3153H376.11ZM388.374 88.9091H390.266L394.715 99.7756H394.869L399.317 88.9091H401.21V102H399.727V92.054H399.599L395.508 102H394.076L389.985 92.054H389.857V102H388.374V88.9091ZM404.388 102V88.9091H405.973V100.594H412.058V102H404.388ZM423.334 105.886C422.605 105.886 421.979 105.793 421.455 105.605C420.931 105.422 420.494 105.179 420.144 104.876C419.799 104.578 419.524 104.259 419.32 103.918L420.521 103.074C420.658 103.253 420.83 103.457 421.039 103.688C421.248 103.922 421.534 104.124 421.896 104.295C422.262 104.469 422.742 104.557 423.334 104.557C424.127 104.557 424.781 104.365 425.296 103.982C425.812 103.598 426.07 102.997 426.07 102.179V100.185H425.942C425.831 100.364 425.673 100.585 425.469 100.849C425.269 101.109 424.979 101.342 424.6 101.546C424.225 101.746 423.718 101.847 423.078 101.847C422.286 101.847 421.574 101.659 420.943 101.284C420.317 100.909 419.82 100.364 419.454 99.6477C419.092 98.9318 418.911 98.0625 418.911 97.0398C418.911 96.0341 419.088 95.1584 419.441 94.4126C419.795 93.6626 420.287 93.0831 420.918 92.674C421.548 92.2607 422.277 92.054 423.104 92.054C423.743 92.054 424.25 92.1605 424.625 92.3736C425.004 92.5824 425.294 92.821 425.494 93.0895C425.699 93.3537 425.857 93.571 425.968 93.7415H426.121V92.1818H427.578V102.281C427.578 103.125 427.387 103.811 427.003 104.339C426.624 104.872 426.112 105.262 425.469 105.509C424.83 105.761 424.118 105.886 423.334 105.886ZM423.283 100.491C423.888 100.491 424.399 100.353 424.817 100.076C425.235 99.799 425.552 99.4006 425.769 98.8807C425.987 98.3608 426.095 97.7386 426.095 97.0142C426.095 96.3068 425.989 95.6825 425.776 95.1413C425.563 94.6001 425.247 94.1761 424.83 93.8693C424.412 93.5625 423.896 93.4091 423.283 93.4091C422.644 93.4091 422.111 93.571 421.685 93.8949C421.263 94.2187 420.945 94.6534 420.732 95.1989C420.524 95.7443 420.419 96.3494 420.419 97.0142C420.419 97.696 420.526 98.299 420.739 98.8232C420.956 99.343 421.276 99.7521 421.698 100.05C422.124 100.344 422.652 100.491 423.283 100.491ZM436.527 97.9858V92.1818H438.036V102H436.527V100.338H436.425C436.195 100.837 435.837 101.261 435.351 101.61C434.865 101.955 434.252 102.128 433.51 102.128C432.896 102.128 432.351 101.994 431.874 101.725C431.396 101.452 431.021 101.043 430.749 100.498C430.476 99.9482 430.34 99.2557 430.34 98.4205V92.1818H431.848V98.3182C431.848 99.0341 432.048 99.6051 432.449 100.031C432.854 100.457 433.369 100.67 433.996 100.67C434.371 100.67 434.752 100.575 435.14 100.383C435.532 100.191 435.86 99.897 436.124 99.5007C436.393 99.1044 436.527 98.5994 436.527 97.9858ZM440.799 102V92.1818H442.307V102H440.799ZM441.566 90.5455C441.272 90.5455 441.018 90.4453 440.805 90.245C440.596 90.0447 440.492 89.804 440.492 89.5227C440.492 89.2415 440.596 89.0007 440.805 88.8004C441.018 88.6001 441.272 88.5 441.566 88.5C441.86 88.5 442.111 88.6001 442.32 88.8004C442.533 89.0007 442.64 89.2415 442.64 89.5227C442.64 89.804 442.533 90.0447 442.32 90.245C442.111 90.4453 441.86 90.5455 441.566 90.5455ZM448.778 102.205C447.959 102.205 447.237 101.998 446.611 101.585C445.984 101.167 445.494 100.579 445.14 99.8203C444.787 99.0575 444.61 98.1562 444.61 97.1165C444.61 96.0852 444.787 95.1903 445.14 94.4318C445.494 93.6733 445.986 93.0874 446.617 92.674C447.248 92.2607 447.976 92.054 448.803 92.054C449.442 92.054 449.947 92.1605 450.318 92.3736C450.693 92.5824 450.979 92.821 451.175 93.0895C451.375 93.3537 451.53 93.571 451.641 93.7415H451.769V88.9091H453.278V102H451.82V100.491H451.641C451.53 100.67 451.373 100.896 451.168 101.169C450.964 101.437 450.672 101.678 450.292 101.891C449.913 102.1 449.408 102.205 448.778 102.205ZM448.982 100.849C449.587 100.849 450.099 100.692 450.516 100.376C450.934 100.057 451.251 99.6158 451.469 99.0533C451.686 98.4865 451.795 97.8324 451.795 97.0909C451.795 96.358 451.688 95.7166 451.475 95.1669C451.262 94.6129 450.947 94.1825 450.529 93.8757C450.111 93.5646 449.596 93.4091 448.982 93.4091C448.343 93.4091 447.81 93.5732 447.384 93.9013C446.962 94.2251 446.645 94.6662 446.432 95.2244C446.223 95.7784 446.118 96.4006 446.118 97.0909C446.118 97.7898 446.225 98.4247 446.438 98.9957C446.655 99.5625 446.975 100.014 447.397 100.351C447.823 100.683 448.351 100.849 448.982 100.849ZM460.366 102.205C459.42 102.205 458.604 101.996 457.918 101.578C457.236 101.156 456.71 100.568 456.339 99.8139C455.973 99.0554 455.79 98.1733 455.79 97.1676C455.79 96.1619 455.973 95.2756 456.339 94.5085C456.71 93.7372 457.226 93.1364 457.886 92.706C458.551 92.2713 459.327 92.054 460.213 92.054C460.724 92.054 461.229 92.1392 461.728 92.3097C462.226 92.4801 462.68 92.7571 463.089 93.1406C463.498 93.5199 463.824 94.0227 464.067 94.6491C464.31 95.2756 464.432 96.0469 464.432 96.9631V97.6023H456.863V96.2983H462.898C462.898 95.7443 462.787 95.25 462.565 94.8153C462.348 94.3807 462.037 94.0376 461.632 93.7862C461.231 93.5348 460.758 93.4091 460.213 93.4091C459.612 93.4091 459.092 93.5582 458.653 93.8565C458.219 94.1506 457.884 94.5341 457.65 95.0071C457.415 95.4801 457.298 95.9872 457.298 96.5284V97.3977C457.298 98.1392 457.426 98.7678 457.682 99.2834C457.942 99.7947 458.302 100.185 458.762 100.453C459.222 100.717 459.757 100.849 460.366 100.849C460.763 100.849 461.121 100.794 461.44 100.683C461.764 100.568 462.043 100.398 462.278 100.172C462.512 99.9418 462.693 99.6562 462.821 99.3153L464.278 99.7244C464.125 100.219 463.867 100.653 463.505 101.028C463.143 101.399 462.695 101.689 462.162 101.898C461.63 102.102 461.031 102.205 460.366 102.205Z" fill="#686565"/>
<defs>
<filter id="filter0_d_3_66" x="134.35" y="23.2525" width="335.807" height="49.3121" filterUnits="userSpaceOnUse" color-interpolation-filters="sRGB">
<feFlood flood-opacity="0" result="BackgroundImageFix"/>
<feColorMatrix in="SourceAlpha" type="matrix" values="0 0 0 0 0 0 0 0 0 0 0 0 0 0 0 0 0 0 127 0" result="hardAlpha"/>
<feOffset dy="4"/>
<feGaussianBlur stdDeviation="2"/>
<feComposite in2="hardAlpha" operator="out"/>
<feColorMatrix type="matrix" values="0 0 0 0 0 0 0 0 0 0 0 0 0 0 0 0 0 0 0.25 0"/>
<feBlend mode="normal" in2="BackgroundImageFix" result="effect1_dropShadow_3_66"/>
<feBlend mode="normal" in="SourceGraphic" in2="effect1_dropShadow_3_66" result="shape"/>
</filter>
</defs>
</svg>
